M48
; DRILL file {KiCad (5.1.4-0)} date 2020年06月14日 日曜日 15:44:07
; FORMAT={3:3/ absolute / metric / suppress leading zeros}
; #@! TF.CreationDate,2020-06-14T15:44:07+08:00
; #@! TF.GenerationSoftware,Kicad,Pcbnew,(5.1.4-0)
FMAT,2
METRIC,TZ
T1C0.400
T2C0.800
T3C0.900
T4C1.000
T5C1.100
T6C1.400
%
G90
G05
T1
X5080Y95250
X6350Y85090
X6350Y82550
X6350Y80010
X6350Y77470
X6350Y74930
X6350Y72136
X6350Y69850
X6350Y67310
X6350Y62230
X6350Y48260
X13970Y68580
X13970Y60960
X13970Y57150
X17145Y84455
X19050Y74930
X19050Y66040
X19050Y55880
X19050Y48260
X21590Y71120
X21590Y49530
X22860Y66040
X25400Y49530
X34290Y95504
X35560Y93980
X38100Y85090
X38100Y60960
X40640Y93980
X40640Y71120
X40640Y49530
X43180Y55880
X45720Y90170
X45720Y77470
X46990Y27940
X47244Y95504
X49530Y33020
X52070Y58420
X56134Y95758
X57150Y64770
X57150Y49530
X58420Y82296
X61976Y91694
X61976Y88900
X70612Y85090
X70612Y82550
X70612Y80010
X70612Y77470
X70612Y74930
X70612Y72390
X70612Y69850
X70612Y67310
X79756Y95250
X80518Y91186
X80772Y88900
X83820Y29210
X91440Y40640
X91948Y61468
X92456Y67564
X92456Y65278
X92710Y87884
X92710Y85090
X92710Y82804
X92710Y80264
X92710Y77470
X92710Y74930
X92710Y72390
X92710Y69850
T2
X73660Y91440
X73660Y88900
X73660Y86360
X52070Y36830
X73660Y83820
X73660Y81280
X73660Y78740
X73660Y76200
X73660Y73660
X73660Y71120
X73660Y68580
X73660Y66040
X73660Y63500
X73660Y60960
X73660Y58420
X73660Y55880
X88900Y91440
X88900Y88900
X88900Y86360
X88900Y83820
X88900Y81280
X88900Y78740
X88900Y76200
X88900Y73660
X88900Y71120
X88900Y68580
X88900Y66040
X88900Y63500
X88900Y60960
X88900Y58420
X52070Y41910
X88900Y55880
X78740Y41910
X78740Y36830
X7620Y41910
X7620Y36830
X55880Y44450
X60960Y44450
X10160Y91440
X10160Y88900
X10160Y86360
X10160Y83820
X10160Y81280
X10160Y78740
X10160Y76200
X10160Y73660
X10160Y71120
X10160Y68580
X10160Y66040
X10160Y63500
X10160Y60960
X10160Y58420
X10160Y55880
X25400Y91440
X25400Y88900
X25400Y86360
X25400Y83820
X25400Y81280
X25400Y78740
X25400Y76200
X25400Y73660
X25400Y71120
X25400Y68580
X62230Y71120
X62230Y66040
X25400Y63500
X25400Y55880
X57150Y68580
X64770Y41910
X64770Y36830
X57150Y73660
X25400Y66040
X25400Y60960
X25400Y58420
X41910Y44450
X46990Y44450
X24130Y44450
X29210Y44450
X33020Y41910
X33020Y36830
X38735Y41910
X38735Y36830
X20320Y41910
X20320Y36830
X11430Y44450
X16510Y44450
X69850Y44450
X74930Y44450
T3
X13970Y40640
X13970Y38100
X30480Y33020
X30480Y30480
X64770Y33020
X64770Y30480
X58420Y40640
X58420Y38100
X26670Y40640
X26670Y38100
X54610Y30480
X76200Y33020
X20320Y33020
X20320Y30480
X54610Y33020
X76200Y30480
X71120Y40640
X71120Y38100
X10160Y33020
X10160Y30480
X45720Y40640
X45720Y38100
X40640Y33020
X40640Y30480
T4
X3810Y86360
X3810Y83820
X3810Y81280
X3810Y78740
X3810Y76200
X3810Y73660
X3810Y71120
X3810Y68580
X3810Y66040
X68580Y58420
X68580Y55880
X6350Y58420
X6350Y55880
X33020Y91440
X67310Y73660
X33020Y88900
X33020Y86360
X33020Y83820
X67310Y76200
X67310Y86360
X67310Y83820
X67310Y81280
X67310Y78740
X67310Y71120
X67310Y68580
X33020Y60960
X63500Y58420
X63500Y55880
X67310Y66040
X33020Y81280
X33020Y78740
X33020Y76200
X33020Y73660
X33020Y71120
X33020Y68580
X33020Y66040
X33020Y63500
X33020Y58420
X95250Y63500
X95250Y66040
X95250Y60960
X95250Y58420
X93980Y50800
X95250Y88900
X95250Y86360
X95250Y83820
X95250Y81280
X95250Y78740
X95250Y76200
X95250Y73660
X95250Y71120
X95250Y68580
X96520Y50800
X95250Y91440
T5
X78740Y21740
X78740Y15240
X83240Y21740
X83240Y15240
X13970Y21740
X13970Y15240
X27940Y21740
X27940Y15240
X32440Y21740
X32440Y15240
X66040Y21740
X66040Y15240
X70540Y21740
X70540Y15240
X53340Y21740
X53340Y15240
X57840Y21740
X57840Y15240
X18470Y15240
X8890Y11580
X8890Y5080
X13390Y11580
X13390Y5080
X18470Y21740
X33020Y11580
X33020Y5080
X37520Y11580
X37520Y5080
X81280Y11580
X81280Y5080
X85780Y11580
X85780Y5080
X68580Y11580
X68580Y5080
X73080Y11580
X73080Y5080
X55880Y11580
X55880Y5080
X23550Y5080
X46300Y11580
X46300Y5080
X50800Y11580
X50800Y5080
X60380Y11580
X19050Y5080
X60380Y5080
X19050Y11580
X23550Y11580
T6
X22860Y20320
X77470Y10160
X77470Y5080
X48260Y20320
X48260Y15240
X27940Y10160
X27940Y5080
X87630Y20320
X87630Y15240
X62230Y20320
X62230Y15240
X36830Y21590
X64770Y10160
X64770Y5080
X8890Y20320
X8890Y15240
X36830Y16510
X90170Y10160
X90170Y5080
X43180Y20320
X43180Y15240
X74930Y20320
X74930Y15240
X22860Y15240
T0
M30
