G04 #@! TF.GenerationSoftware,KiCad,Pcbnew,(5.1.4-0)*
G04 #@! TF.CreationDate,2020-06-14T15:43:19+08:00*
G04 #@! TF.ProjectId,2NanoMusic,324e616e-6f4d-4757-9369-632e6b696361,rev?*
G04 #@! TF.SameCoordinates,PX3938700PY8f0d180*
G04 #@! TF.FileFunction,Legend,Top*
G04 #@! TF.FilePolarity,Positive*
%FSLAX46Y46*%
G04 Gerber Fmt 4.6, Leading zero omitted, Abs format (unit mm)*
G04 Created by KiCad (PCBNEW (5.1.4-0)) date 2020-06-14 15:43:19*
%MOMM*%
%LPD*%
G04 APERTURE LIST*
%ADD10C,0.120000*%
%ADD11C,0.150000*%
G04 APERTURE END LIST*
D10*
X24130000Y57150000D02*
X24130000Y54610000D01*
X24130000Y54610000D02*
X26800000Y54610000D01*
X26800000Y57150000D02*
X26800000Y95380000D01*
X26800000Y51940000D02*
X26800000Y54610000D01*
X11430000Y54610000D02*
X8760000Y54610000D01*
X11430000Y54610000D02*
X11430000Y92710000D01*
X11430000Y92710000D02*
X8760000Y92710000D01*
X24130000Y57150000D02*
X26800000Y57150000D01*
X24130000Y57150000D02*
X24130000Y92710000D01*
X24130000Y92710000D02*
X26800000Y92710000D01*
X26800000Y95380000D02*
X8760000Y95380000D01*
X8760000Y95380000D02*
X8760000Y51940000D01*
X8760000Y51940000D02*
X26800000Y51940000D01*
X72260000Y51940000D02*
X90300000Y51940000D01*
X72260000Y95380000D02*
X72260000Y51940000D01*
X90300000Y95380000D02*
X72260000Y95380000D01*
X87630000Y92710000D02*
X90300000Y92710000D01*
X87630000Y57150000D02*
X87630000Y92710000D01*
X87630000Y57150000D02*
X90300000Y57150000D01*
X74930000Y92710000D02*
X72260000Y92710000D01*
X74930000Y54610000D02*
X74930000Y92710000D01*
X74930000Y54610000D02*
X72260000Y54610000D01*
X90300000Y51940000D02*
X90300000Y54610000D01*
X90300000Y57150000D02*
X90300000Y95380000D01*
X87630000Y54610000D02*
X90300000Y54610000D01*
X87630000Y57150000D02*
X87630000Y54610000D01*
X8890000Y18145101D02*
X8890000Y16940000D01*
X11064899Y20320000D02*
G75*
G03X11064899Y20320000I-2174899J0D01*
G01*
X22860000Y18145101D02*
X22860000Y16940000D01*
X25034899Y20320000D02*
G75*
G03X25034899Y20320000I-2174899J0D01*
G01*
X27940000Y7985101D02*
X27940000Y6780000D01*
X30114899Y10160000D02*
G75*
G03X30114899Y10160000I-2174899J0D01*
G01*
X39004899Y16510000D02*
G75*
G03X39004899Y16510000I-2174899J0D01*
G01*
X36830000Y18684899D02*
X36830000Y19890000D01*
X45354899Y20320000D02*
G75*
G03X45354899Y20320000I-2174899J0D01*
G01*
X43180000Y18145101D02*
X43180000Y16940000D01*
X50434899Y20320000D02*
G75*
G03X50434899Y20320000I-2174899J0D01*
G01*
X48260000Y18145101D02*
X48260000Y16940000D01*
X62230000Y18145101D02*
X62230000Y16940000D01*
X64404899Y20320000D02*
G75*
G03X64404899Y20320000I-2174899J0D01*
G01*
X66944899Y10160000D02*
G75*
G03X66944899Y10160000I-2174899J0D01*
G01*
X64770000Y7985101D02*
X64770000Y6780000D01*
X74930000Y18145101D02*
X74930000Y16940000D01*
X77104899Y20320000D02*
G75*
G03X77104899Y20320000I-2174899J0D01*
G01*
X79644899Y10160000D02*
G75*
G03X79644899Y10160000I-2174899J0D01*
G01*
X77470000Y7985101D02*
X77470000Y6780000D01*
X87630000Y18145101D02*
X87630000Y16940000D01*
X89804899Y20320000D02*
G75*
G03X89804899Y20320000I-2174899J0D01*
G01*
X92344899Y10160000D02*
G75*
G03X92344899Y10160000I-2174899J0D01*
G01*
X90170000Y7985101D02*
X90170000Y6780000D01*
X34350000Y57090000D02*
X33020000Y57090000D01*
X34350000Y58420000D02*
X34350000Y57090000D01*
X34350000Y59690000D02*
X31690000Y59690000D01*
X31690000Y59690000D02*
X31690000Y92770000D01*
X34350000Y59690000D02*
X34350000Y92770000D01*
X34350000Y92770000D02*
X31690000Y92770000D01*
X2480000Y87690000D02*
X3810000Y87690000D01*
X2480000Y86360000D02*
X2480000Y87690000D01*
X2480000Y85090000D02*
X5140000Y85090000D01*
X5140000Y85090000D02*
X5140000Y64710000D01*
X2480000Y85090000D02*
X2480000Y64710000D01*
X2480000Y64710000D02*
X5140000Y64710000D01*
X96580000Y92770000D02*
X93920000Y92770000D01*
X96580000Y59690000D02*
X96580000Y92770000D01*
X93920000Y59690000D02*
X93920000Y92770000D01*
X96580000Y59690000D02*
X93920000Y59690000D01*
X96580000Y58420000D02*
X96580000Y57090000D01*
X96580000Y57090000D02*
X95250000Y57090000D01*
X65980000Y64710000D02*
X68640000Y64710000D01*
X65980000Y85090000D02*
X65980000Y64710000D01*
X68640000Y85090000D02*
X68640000Y64710000D01*
X65980000Y85090000D02*
X68640000Y85090000D01*
X65980000Y86360000D02*
X65980000Y87690000D01*
X65980000Y87690000D02*
X67310000Y87690000D01*
X42610000Y92440000D02*
G75*
G02X43310000Y91740000I0J-700000D01*
G01*
X43310000Y91140000D02*
G75*
G02X42610000Y90440000I-700000J0D01*
G01*
X41210000Y90440000D02*
G75*
G02X40510000Y91140000I0J700000D01*
G01*
X40510000Y91740000D02*
G75*
G02X41210000Y92440000I700000J0D01*
G01*
X40510000Y91140000D02*
X40510000Y91740000D01*
X42610000Y90440000D02*
X41210000Y90440000D01*
X43310000Y91740000D02*
X43310000Y91140000D01*
X41210000Y92440000D02*
X42610000Y92440000D01*
X50750000Y97520000D02*
X52150000Y97520000D01*
X52850000Y96820000D02*
X52850000Y96220000D01*
X52150000Y95520000D02*
X50750000Y95520000D01*
X50050000Y96220000D02*
X50050000Y96820000D01*
X50050000Y96820000D02*
G75*
G02X50750000Y97520000I700000J0D01*
G01*
X50750000Y95520000D02*
G75*
G02X50050000Y96220000I0J700000D01*
G01*
X52850000Y96220000D02*
G75*
G02X52150000Y95520000I-700000J0D01*
G01*
X52150000Y97520000D02*
G75*
G02X52850000Y96820000I0J-700000D01*
G01*
X60390000Y97520000D02*
G75*
G02X61090000Y96820000I0J-700000D01*
G01*
X61090000Y96220000D02*
G75*
G02X60390000Y95520000I-700000J0D01*
G01*
X58990000Y95520000D02*
G75*
G02X58290000Y96220000I0J700000D01*
G01*
X58290000Y96820000D02*
G75*
G02X58990000Y97520000I700000J0D01*
G01*
X58290000Y96220000D02*
X58290000Y96820000D01*
X60390000Y95520000D02*
X58990000Y95520000D01*
X61090000Y96820000D02*
X61090000Y96220000D01*
X58990000Y97520000D02*
X60390000Y97520000D01*
X41210000Y97520000D02*
X42610000Y97520000D01*
X43310000Y96820000D02*
X43310000Y96220000D01*
X42610000Y95520000D02*
X41210000Y95520000D01*
X40510000Y96220000D02*
X40510000Y96820000D01*
X40510000Y96820000D02*
G75*
G02X41210000Y97520000I700000J0D01*
G01*
X41210000Y95520000D02*
G75*
G02X40510000Y96220000I0J700000D01*
G01*
X43310000Y96220000D02*
G75*
G02X42610000Y95520000I-700000J0D01*
G01*
X42610000Y97520000D02*
G75*
G02X43310000Y96820000I0J-700000D01*
G01*
X52120000Y92440000D02*
G75*
G02X52820000Y91740000I0J-700000D01*
G01*
X52820000Y91140000D02*
G75*
G02X52120000Y90440000I-700000J0D01*
G01*
X50720000Y90440000D02*
G75*
G02X50020000Y91140000I0J700000D01*
G01*
X50020000Y91740000D02*
G75*
G02X50720000Y92440000I700000J0D01*
G01*
X50020000Y91140000D02*
X50020000Y91740000D01*
X52120000Y90440000D02*
X50720000Y90440000D01*
X52820000Y91740000D02*
X52820000Y91140000D01*
X50720000Y92440000D02*
X52120000Y92440000D01*
X69910000Y54550000D02*
X68580000Y54550000D01*
X69910000Y55880000D02*
X69910000Y54550000D01*
X69910000Y57150000D02*
X67250000Y57150000D01*
X67250000Y57150000D02*
X67250000Y59750000D01*
X69910000Y57150000D02*
X69910000Y59750000D01*
X69910000Y59750000D02*
X67250000Y59750000D01*
X64830000Y59750000D02*
X62170000Y59750000D01*
X64830000Y57150000D02*
X64830000Y59750000D01*
X62170000Y57150000D02*
X62170000Y59750000D01*
X64830000Y57150000D02*
X62170000Y57150000D01*
X64830000Y55880000D02*
X64830000Y54550000D01*
X64830000Y54550000D02*
X63500000Y54550000D01*
X7680000Y54550000D02*
X6350000Y54550000D01*
X7680000Y55880000D02*
X7680000Y54550000D01*
X7680000Y57150000D02*
X5020000Y57150000D01*
X5020000Y57150000D02*
X5020000Y59750000D01*
X7680000Y57150000D02*
X7680000Y59750000D01*
X7680000Y59750000D02*
X5020000Y59750000D01*
X92650000Y52130000D02*
X92650000Y49470000D01*
X95250000Y52130000D02*
X92650000Y52130000D01*
X95250000Y49470000D02*
X92650000Y49470000D01*
X95250000Y52130000D02*
X95250000Y49470000D01*
X96520000Y52130000D02*
X97850000Y52130000D01*
X97850000Y52130000D02*
X97850000Y50800000D01*
X10159538Y28760000D02*
G75*
G03X11704830Y34310000I462J2990000D01*
G01*
X10160462Y28760000D02*
G75*
G02X8615170Y34310000I-462J2990000D01*
G01*
X12660000Y31750000D02*
G75*
G03X12660000Y31750000I-2500000J0D01*
G01*
X11705000Y34310000D02*
X8615000Y34310000D01*
X13969538Y36380000D02*
G75*
G03X15514830Y41930000I462J2990000D01*
G01*
X13970462Y36380000D02*
G75*
G02X12425170Y41930000I-462J2990000D01*
G01*
X16470000Y39370000D02*
G75*
G03X16470000Y39370000I-2500000J0D01*
G01*
X15515000Y41930000D02*
X12425000Y41930000D01*
X21865000Y34310000D02*
X18775000Y34310000D01*
X22820000Y31750000D02*
G75*
G03X22820000Y31750000I-2500000J0D01*
G01*
X20320462Y28760000D02*
G75*
G02X18775170Y34310000I-462J2990000D01*
G01*
X20319538Y28760000D02*
G75*
G03X21864830Y34310000I462J2990000D01*
G01*
X26669538Y36380000D02*
G75*
G03X28214830Y41930000I462J2990000D01*
G01*
X26670462Y36380000D02*
G75*
G02X25125170Y41930000I-462J2990000D01*
G01*
X29170000Y39370000D02*
G75*
G03X29170000Y39370000I-2500000J0D01*
G01*
X28215000Y41930000D02*
X25125000Y41930000D01*
X32025000Y34310000D02*
X28935000Y34310000D01*
X32980000Y31750000D02*
G75*
G03X32980000Y31750000I-2500000J0D01*
G01*
X30480462Y28760000D02*
G75*
G02X28935170Y34310000I-462J2990000D01*
G01*
X30479538Y28760000D02*
G75*
G03X32024830Y34310000I462J2990000D01*
G01*
X42185000Y34310000D02*
X39095000Y34310000D01*
X43140000Y31750000D02*
G75*
G03X43140000Y31750000I-2500000J0D01*
G01*
X40640462Y28760000D02*
G75*
G02X39095170Y34310000I-462J2990000D01*
G01*
X40639538Y28760000D02*
G75*
G03X42184830Y34310000I462J2990000D01*
G01*
X47265000Y41930000D02*
X44175000Y41930000D01*
X48220000Y39370000D02*
G75*
G03X48220000Y39370000I-2500000J0D01*
G01*
X45720462Y36380000D02*
G75*
G02X44175170Y41930000I-462J2990000D01*
G01*
X45719538Y36380000D02*
G75*
G03X47264830Y41930000I462J2990000D01*
G01*
X54609538Y28760000D02*
G75*
G03X56154830Y34310000I462J2990000D01*
G01*
X54610462Y28760000D02*
G75*
G02X53065170Y34310000I-462J2990000D01*
G01*
X57110000Y31750000D02*
G75*
G03X57110000Y31750000I-2500000J0D01*
G01*
X56155000Y34310000D02*
X53065000Y34310000D01*
X59965000Y41930000D02*
X56875000Y41930000D01*
X60920000Y39370000D02*
G75*
G03X60920000Y39370000I-2500000J0D01*
G01*
X58420462Y36380000D02*
G75*
G02X56875170Y41930000I-462J2990000D01*
G01*
X58419538Y36380000D02*
G75*
G03X59964830Y41930000I462J2990000D01*
G01*
X64769538Y28760000D02*
G75*
G03X66314830Y34310000I462J2990000D01*
G01*
X64770462Y28760000D02*
G75*
G02X63225170Y34310000I-462J2990000D01*
G01*
X67270000Y31750000D02*
G75*
G03X67270000Y31750000I-2500000J0D01*
G01*
X66315000Y34310000D02*
X63225000Y34310000D01*
X72665000Y41930000D02*
X69575000Y41930000D01*
X73620000Y39370000D02*
G75*
G03X73620000Y39370000I-2500000J0D01*
G01*
X71120462Y36380000D02*
G75*
G02X69575170Y41930000I-462J2990000D01*
G01*
X71119538Y36380000D02*
G75*
G03X72664830Y41930000I462J2990000D01*
G01*
X76199538Y28760000D02*
G75*
G03X77744830Y34310000I462J2990000D01*
G01*
X76200462Y28760000D02*
G75*
G02X74655170Y34310000I-462J2990000D01*
G01*
X78700000Y31750000D02*
G75*
G03X78700000Y31750000I-2500000J0D01*
G01*
X77745000Y34310000D02*
X74655000Y34310000D01*
X8990000Y36830000D02*
G75*
G03X8990000Y36830000I-1370000J0D01*
G01*
X7620000Y38200000D02*
X7620000Y40810000D01*
X12800000Y44450000D02*
X15410000Y44450000D01*
X12800000Y44450000D02*
G75*
G03X12800000Y44450000I-1370000J0D01*
G01*
X21690000Y36830000D02*
G75*
G03X21690000Y36830000I-1370000J0D01*
G01*
X20320000Y38200000D02*
X20320000Y40810000D01*
X25500000Y44450000D02*
X28110000Y44450000D01*
X25500000Y44450000D02*
G75*
G03X25500000Y44450000I-1370000J0D01*
G01*
X34390000Y36830000D02*
G75*
G03X34390000Y36830000I-1370000J0D01*
G01*
X33020000Y38200000D02*
X33020000Y40810000D01*
X38735000Y38200000D02*
X38735000Y40810000D01*
X40105000Y36830000D02*
G75*
G03X40105000Y36830000I-1370000J0D01*
G01*
X43280000Y44450000D02*
G75*
G03X43280000Y44450000I-1370000J0D01*
G01*
X43280000Y44450000D02*
X45890000Y44450000D01*
X52070000Y38200000D02*
X52070000Y40810000D01*
X53440000Y36830000D02*
G75*
G03X53440000Y36830000I-1370000J0D01*
G01*
X57250000Y44450000D02*
G75*
G03X57250000Y44450000I-1370000J0D01*
G01*
X57250000Y44450000D02*
X59860000Y44450000D01*
X64770000Y38200000D02*
X64770000Y40810000D01*
X66140000Y36830000D02*
G75*
G03X66140000Y36830000I-1370000J0D01*
G01*
X71220000Y44450000D02*
G75*
G03X71220000Y44450000I-1370000J0D01*
G01*
X71220000Y44450000D02*
X73830000Y44450000D01*
X78740000Y38200000D02*
X78740000Y40810000D01*
X80110000Y36830000D02*
G75*
G03X80110000Y36830000I-1370000J0D01*
G01*
X62230000Y67410000D02*
X62230000Y70020000D01*
X63600000Y66040000D02*
G75*
G03X63600000Y66040000I-1370000J0D01*
G01*
X58520000Y68580000D02*
G75*
G03X58520000Y68580000I-1370000J0D01*
G01*
X57150000Y69950000D02*
X57150000Y72560000D01*
X14390000Y6080000D02*
X14390000Y10580000D01*
X10390000Y4830000D02*
X11890000Y4830000D01*
X7890000Y10580000D02*
X7890000Y6080000D01*
X11890000Y11830000D02*
X10390000Y11830000D01*
X16970000Y21990000D02*
X15470000Y21990000D01*
X12970000Y20740000D02*
X12970000Y16240000D01*
X15470000Y14990000D02*
X16970000Y14990000D01*
X19470000Y16240000D02*
X19470000Y20740000D01*
X24550000Y6080000D02*
X24550000Y10580000D01*
X20550000Y4830000D02*
X22050000Y4830000D01*
X18050000Y10580000D02*
X18050000Y6080000D01*
X22050000Y11830000D02*
X20550000Y11830000D01*
X30940000Y21990000D02*
X29440000Y21990000D01*
X26940000Y20740000D02*
X26940000Y16240000D01*
X29440000Y14990000D02*
X30940000Y14990000D01*
X33440000Y16240000D02*
X33440000Y20740000D01*
X38520000Y6080000D02*
X38520000Y10580000D01*
X34520000Y4830000D02*
X36020000Y4830000D01*
X32020000Y10580000D02*
X32020000Y6080000D01*
X36020000Y11830000D02*
X34520000Y11830000D01*
X49300000Y11830000D02*
X47800000Y11830000D01*
X45300000Y10580000D02*
X45300000Y6080000D01*
X47800000Y4830000D02*
X49300000Y4830000D01*
X51800000Y6080000D02*
X51800000Y10580000D01*
X58840000Y16240000D02*
X58840000Y20740000D01*
X54840000Y14990000D02*
X56340000Y14990000D01*
X52340000Y20740000D02*
X52340000Y16240000D01*
X56340000Y21990000D02*
X54840000Y21990000D01*
X58880000Y11830000D02*
X57380000Y11830000D01*
X54880000Y10580000D02*
X54880000Y6080000D01*
X57380000Y4830000D02*
X58880000Y4830000D01*
X61380000Y6080000D02*
X61380000Y10580000D01*
X71540000Y16240000D02*
X71540000Y20740000D01*
X67540000Y14990000D02*
X69040000Y14990000D01*
X65040000Y20740000D02*
X65040000Y16240000D01*
X69040000Y21990000D02*
X67540000Y21990000D01*
X71580000Y11830000D02*
X70080000Y11830000D01*
X67580000Y10580000D02*
X67580000Y6080000D01*
X70080000Y4830000D02*
X71580000Y4830000D01*
X74080000Y6080000D02*
X74080000Y10580000D01*
X84240000Y16240000D02*
X84240000Y20740000D01*
X80240000Y14990000D02*
X81740000Y14990000D01*
X77740000Y20740000D02*
X77740000Y16240000D01*
X81740000Y21990000D02*
X80240000Y21990000D01*
X84280000Y11830000D02*
X82780000Y11830000D01*
X80280000Y10580000D02*
X80280000Y6080000D01*
X82780000Y4830000D02*
X84280000Y4830000D01*
X86780000Y6080000D02*
X86780000Y10580000D01*
D11*
X17065714Y50633334D02*
X17541904Y50633334D01*
X16970476Y50347620D02*
X17303809Y51347620D01*
X17637142Y50347620D01*
X18494285Y50347620D02*
X17922857Y50347620D01*
X18208571Y50347620D02*
X18208571Y51347620D01*
X18113333Y51204762D01*
X18018095Y51109524D01*
X17922857Y51061905D01*
X80565714Y50633334D02*
X81041904Y50633334D01*
X80470476Y50347620D02*
X80803809Y51347620D01*
X81137142Y50347620D01*
X81422857Y51252381D02*
X81470476Y51300000D01*
X81565714Y51347620D01*
X81803809Y51347620D01*
X81899047Y51300000D01*
X81946666Y51252381D01*
X81994285Y51157143D01*
X81994285Y51061905D01*
X81946666Y50919048D01*
X81375238Y50347620D01*
X81994285Y50347620D01*
X8072380Y10691905D02*
X7072380Y10691905D01*
X7072380Y10930000D01*
X7120000Y11072858D01*
X7215238Y11168096D01*
X7310476Y11215715D01*
X7500952Y11263334D01*
X7643809Y11263334D01*
X7834285Y11215715D01*
X7929523Y11168096D01*
X8024761Y11072858D01*
X8072380Y10930000D01*
X8072380Y10691905D01*
X8072380Y12215715D02*
X8072380Y11644286D01*
X8072380Y11930000D02*
X7072380Y11930000D01*
X7215238Y11834762D01*
X7310476Y11739524D01*
X7358095Y11644286D01*
X7656666Y17101905D02*
X7656666Y17578096D01*
X7942380Y17006667D02*
X6942380Y17340000D01*
X7942380Y17673334D01*
X22121904Y23677620D02*
X22121904Y24677620D01*
X22360000Y24677620D01*
X22502857Y24630000D01*
X22598095Y24534762D01*
X22645714Y24439524D01*
X22693333Y24249048D01*
X22693333Y24106191D01*
X22645714Y23915715D01*
X22598095Y23820477D01*
X22502857Y23725239D01*
X22360000Y23677620D01*
X22121904Y23677620D01*
X23074285Y24582381D02*
X23121904Y24630000D01*
X23217142Y24677620D01*
X23455238Y24677620D01*
X23550476Y24630000D01*
X23598095Y24582381D01*
X23645714Y24487143D01*
X23645714Y24391905D01*
X23598095Y24249048D01*
X23026666Y23677620D01*
X23645714Y23677620D01*
X21626666Y17101905D02*
X21626666Y17578096D01*
X21912380Y17006667D02*
X20912380Y17340000D01*
X21912380Y17673334D01*
X27201904Y2087620D02*
X27201904Y3087620D01*
X27440000Y3087620D01*
X27582857Y3040000D01*
X27678095Y2944762D01*
X27725714Y2849524D01*
X27773333Y2659048D01*
X27773333Y2516191D01*
X27725714Y2325715D01*
X27678095Y2230477D01*
X27582857Y2135239D01*
X27440000Y2087620D01*
X27201904Y2087620D01*
X28106666Y3087620D02*
X28725714Y3087620D01*
X28392380Y2706667D01*
X28535238Y2706667D01*
X28630476Y2659048D01*
X28678095Y2611429D01*
X28725714Y2516191D01*
X28725714Y2278096D01*
X28678095Y2182858D01*
X28630476Y2135239D01*
X28535238Y2087620D01*
X28249523Y2087620D01*
X28154285Y2135239D01*
X28106666Y2182858D01*
X26706666Y6941905D02*
X26706666Y7418096D01*
X26992380Y6846667D02*
X25992380Y7180000D01*
X26992380Y7513334D01*
X36091904Y23677620D02*
X36091904Y24677620D01*
X36330000Y24677620D01*
X36472857Y24630000D01*
X36568095Y24534762D01*
X36615714Y24439524D01*
X36663333Y24249048D01*
X36663333Y24106191D01*
X36615714Y23915715D01*
X36568095Y23820477D01*
X36472857Y23725239D01*
X36330000Y23677620D01*
X36091904Y23677620D01*
X37520476Y24344286D02*
X37520476Y23677620D01*
X37282380Y24725239D02*
X37044285Y24010953D01*
X37663333Y24010953D01*
X38396666Y19251905D02*
X38396666Y19728096D01*
X38682380Y19156667D02*
X37682380Y19490000D01*
X38682380Y19823334D01*
X42441904Y23677620D02*
X42441904Y24677620D01*
X42680000Y24677620D01*
X42822857Y24630000D01*
X42918095Y24534762D01*
X42965714Y24439524D01*
X43013333Y24249048D01*
X43013333Y24106191D01*
X42965714Y23915715D01*
X42918095Y23820477D01*
X42822857Y23725239D01*
X42680000Y23677620D01*
X42441904Y23677620D01*
X43918095Y24677620D02*
X43441904Y24677620D01*
X43394285Y24201429D01*
X43441904Y24249048D01*
X43537142Y24296667D01*
X43775238Y24296667D01*
X43870476Y24249048D01*
X43918095Y24201429D01*
X43965714Y24106191D01*
X43965714Y23868096D01*
X43918095Y23772858D01*
X43870476Y23725239D01*
X43775238Y23677620D01*
X43537142Y23677620D01*
X43441904Y23725239D01*
X43394285Y23772858D01*
X41946666Y17101905D02*
X41946666Y17578096D01*
X42232380Y17006667D02*
X41232380Y17340000D01*
X42232380Y17673334D01*
X47521904Y23677620D02*
X47521904Y24677620D01*
X47760000Y24677620D01*
X47902857Y24630000D01*
X47998095Y24534762D01*
X48045714Y24439524D01*
X48093333Y24249048D01*
X48093333Y24106191D01*
X48045714Y23915715D01*
X47998095Y23820477D01*
X47902857Y23725239D01*
X47760000Y23677620D01*
X47521904Y23677620D01*
X48950476Y24677620D02*
X48760000Y24677620D01*
X48664761Y24630000D01*
X48617142Y24582381D01*
X48521904Y24439524D01*
X48474285Y24249048D01*
X48474285Y23868096D01*
X48521904Y23772858D01*
X48569523Y23725239D01*
X48664761Y23677620D01*
X48855238Y23677620D01*
X48950476Y23725239D01*
X48998095Y23772858D01*
X49045714Y23868096D01*
X49045714Y24106191D01*
X48998095Y24201429D01*
X48950476Y24249048D01*
X48855238Y24296667D01*
X48664761Y24296667D01*
X48569523Y24249048D01*
X48521904Y24201429D01*
X48474285Y24106191D01*
X47026666Y17101905D02*
X47026666Y17578096D01*
X47312380Y17006667D02*
X46312380Y17340000D01*
X47312380Y17673334D01*
X61491904Y23677620D02*
X61491904Y24677620D01*
X61730000Y24677620D01*
X61872857Y24630000D01*
X61968095Y24534762D01*
X62015714Y24439524D01*
X62063333Y24249048D01*
X62063333Y24106191D01*
X62015714Y23915715D01*
X61968095Y23820477D01*
X61872857Y23725239D01*
X61730000Y23677620D01*
X61491904Y23677620D01*
X62396666Y24677620D02*
X63063333Y24677620D01*
X62634761Y23677620D01*
X60996666Y17101905D02*
X60996666Y17578096D01*
X61282380Y17006667D02*
X60282380Y17340000D01*
X61282380Y17673334D01*
X64031904Y2087620D02*
X64031904Y3087620D01*
X64270000Y3087620D01*
X64412857Y3040000D01*
X64508095Y2944762D01*
X64555714Y2849524D01*
X64603333Y2659048D01*
X64603333Y2516191D01*
X64555714Y2325715D01*
X64508095Y2230477D01*
X64412857Y2135239D01*
X64270000Y2087620D01*
X64031904Y2087620D01*
X65174761Y2659048D02*
X65079523Y2706667D01*
X65031904Y2754286D01*
X64984285Y2849524D01*
X64984285Y2897143D01*
X65031904Y2992381D01*
X65079523Y3040000D01*
X65174761Y3087620D01*
X65365238Y3087620D01*
X65460476Y3040000D01*
X65508095Y2992381D01*
X65555714Y2897143D01*
X65555714Y2849524D01*
X65508095Y2754286D01*
X65460476Y2706667D01*
X65365238Y2659048D01*
X65174761Y2659048D01*
X65079523Y2611429D01*
X65031904Y2563810D01*
X64984285Y2468572D01*
X64984285Y2278096D01*
X65031904Y2182858D01*
X65079523Y2135239D01*
X65174761Y2087620D01*
X65365238Y2087620D01*
X65460476Y2135239D01*
X65508095Y2182858D01*
X65555714Y2278096D01*
X65555714Y2468572D01*
X65508095Y2563810D01*
X65460476Y2611429D01*
X65365238Y2659048D01*
X63536666Y6941905D02*
X63536666Y7418096D01*
X63822380Y6846667D02*
X62822380Y7180000D01*
X63822380Y7513334D01*
X74191904Y23677620D02*
X74191904Y24677620D01*
X74430000Y24677620D01*
X74572857Y24630000D01*
X74668095Y24534762D01*
X74715714Y24439524D01*
X74763333Y24249048D01*
X74763333Y24106191D01*
X74715714Y23915715D01*
X74668095Y23820477D01*
X74572857Y23725239D01*
X74430000Y23677620D01*
X74191904Y23677620D01*
X75239523Y23677620D02*
X75430000Y23677620D01*
X75525238Y23725239D01*
X75572857Y23772858D01*
X75668095Y23915715D01*
X75715714Y24106191D01*
X75715714Y24487143D01*
X75668095Y24582381D01*
X75620476Y24630000D01*
X75525238Y24677620D01*
X75334761Y24677620D01*
X75239523Y24630000D01*
X75191904Y24582381D01*
X75144285Y24487143D01*
X75144285Y24249048D01*
X75191904Y24153810D01*
X75239523Y24106191D01*
X75334761Y24058572D01*
X75525238Y24058572D01*
X75620476Y24106191D01*
X75668095Y24153810D01*
X75715714Y24249048D01*
X73696666Y17101905D02*
X73696666Y17578096D01*
X73982380Y17006667D02*
X72982380Y17340000D01*
X73982380Y17673334D01*
X76255714Y2087620D02*
X76255714Y3087620D01*
X76493809Y3087620D01*
X76636666Y3040000D01*
X76731904Y2944762D01*
X76779523Y2849524D01*
X76827142Y2659048D01*
X76827142Y2516191D01*
X76779523Y2325715D01*
X76731904Y2230477D01*
X76636666Y2135239D01*
X76493809Y2087620D01*
X76255714Y2087620D01*
X77779523Y2087620D02*
X77208095Y2087620D01*
X77493809Y2087620D02*
X77493809Y3087620D01*
X77398571Y2944762D01*
X77303333Y2849524D01*
X77208095Y2801905D01*
X78398571Y3087620D02*
X78493809Y3087620D01*
X78589047Y3040000D01*
X78636666Y2992381D01*
X78684285Y2897143D01*
X78731904Y2706667D01*
X78731904Y2468572D01*
X78684285Y2278096D01*
X78636666Y2182858D01*
X78589047Y2135239D01*
X78493809Y2087620D01*
X78398571Y2087620D01*
X78303333Y2135239D01*
X78255714Y2182858D01*
X78208095Y2278096D01*
X78160476Y2468572D01*
X78160476Y2706667D01*
X78208095Y2897143D01*
X78255714Y2992381D01*
X78303333Y3040000D01*
X78398571Y3087620D01*
X76236666Y6941905D02*
X76236666Y7418096D01*
X76522380Y6846667D02*
X75522380Y7180000D01*
X76522380Y7513334D01*
X91257279Y16565715D02*
X90257279Y16565715D01*
X90257279Y16803810D01*
X90304899Y16946667D01*
X90400137Y17041905D01*
X90495375Y17089524D01*
X90685851Y17137143D01*
X90828708Y17137143D01*
X91019184Y17089524D01*
X91114422Y17041905D01*
X91209660Y16946667D01*
X91257279Y16803810D01*
X91257279Y16565715D01*
X91257279Y18089524D02*
X91257279Y17518096D01*
X91257279Y17803810D02*
X90257279Y17803810D01*
X90400137Y17708572D01*
X90495375Y17613334D01*
X90542994Y17518096D01*
X91257279Y19041905D02*
X91257279Y18470477D01*
X91257279Y18756191D02*
X90257279Y18756191D01*
X90400137Y18660953D01*
X90495375Y18565715D01*
X90542994Y18470477D01*
X86396666Y17101905D02*
X86396666Y17578096D01*
X86682380Y17006667D02*
X85682380Y17340000D01*
X86682380Y17673334D01*
X93797279Y6405715D02*
X92797279Y6405715D01*
X92797279Y6643810D01*
X92844899Y6786667D01*
X92940137Y6881905D01*
X93035375Y6929524D01*
X93225851Y6977143D01*
X93368708Y6977143D01*
X93559184Y6929524D01*
X93654422Y6881905D01*
X93749660Y6786667D01*
X93797279Y6643810D01*
X93797279Y6405715D01*
X93797279Y7929524D02*
X93797279Y7358096D01*
X93797279Y7643810D02*
X92797279Y7643810D01*
X92940137Y7548572D01*
X93035375Y7453334D01*
X93082994Y7358096D01*
X92892518Y8310477D02*
X92844899Y8358096D01*
X92797279Y8453334D01*
X92797279Y8691429D01*
X92844899Y8786667D01*
X92892518Y8834286D01*
X92987756Y8881905D01*
X93082994Y8881905D01*
X93225851Y8834286D01*
X93797279Y8262858D01*
X93797279Y8881905D01*
X88936666Y6941905D02*
X88936666Y7418096D01*
X89222380Y6846667D02*
X88222380Y7180000D01*
X89222380Y7513334D01*
X32686666Y56637620D02*
X32686666Y55923334D01*
X32639047Y55780477D01*
X32543809Y55685239D01*
X32400952Y55637620D01*
X32305714Y55637620D01*
X33686666Y55637620D02*
X33115238Y55637620D01*
X33400952Y55637620D02*
X33400952Y56637620D01*
X33305714Y56494762D01*
X33210476Y56399524D01*
X33115238Y56351905D01*
X3476666Y89237620D02*
X3476666Y88523334D01*
X3429047Y88380477D01*
X3333809Y88285239D01*
X3190952Y88237620D01*
X3095714Y88237620D01*
X3905238Y89142381D02*
X3952857Y89190000D01*
X4048095Y89237620D01*
X4286190Y89237620D01*
X4381428Y89190000D01*
X4429047Y89142381D01*
X4476666Y89047143D01*
X4476666Y88951905D01*
X4429047Y88809048D01*
X3857619Y88237620D01*
X4476666Y88237620D01*
X94916666Y56637620D02*
X94916666Y55923334D01*
X94869047Y55780477D01*
X94773809Y55685239D01*
X94630952Y55637620D01*
X94535714Y55637620D01*
X95297619Y56637620D02*
X95916666Y56637620D01*
X95583333Y56256667D01*
X95726190Y56256667D01*
X95821428Y56209048D01*
X95869047Y56161429D01*
X95916666Y56066191D01*
X95916666Y55828096D01*
X95869047Y55732858D01*
X95821428Y55685239D01*
X95726190Y55637620D01*
X95440476Y55637620D01*
X95345238Y55685239D01*
X95297619Y55732858D01*
X66976666Y89237620D02*
X66976666Y88523334D01*
X66929047Y88380477D01*
X66833809Y88285239D01*
X66690952Y88237620D01*
X66595714Y88237620D01*
X67881428Y88904286D02*
X67881428Y88237620D01*
X67643333Y89285239D02*
X67405238Y88570953D01*
X68024285Y88570953D01*
X38886190Y93787620D02*
X38886190Y93073334D01*
X38838571Y92930477D01*
X38743333Y92835239D01*
X38600476Y92787620D01*
X38505238Y92787620D01*
X39362380Y92787620D02*
X39362380Y93787620D01*
X39743333Y93787620D01*
X39838571Y93740000D01*
X39886190Y93692381D01*
X39933809Y93597143D01*
X39933809Y93454286D01*
X39886190Y93359048D01*
X39838571Y93311429D01*
X39743333Y93263810D01*
X39362380Y93263810D01*
X40124285Y92692381D02*
X40886190Y92692381D01*
X41124285Y92787620D02*
X41124285Y93787620D01*
X41457619Y93073334D01*
X41790952Y93787620D01*
X41790952Y92787620D01*
X42267142Y92787620D02*
X42267142Y93787620D01*
X42695714Y92835239D02*
X42838571Y92787620D01*
X43076666Y92787620D01*
X43171904Y92835239D01*
X43219523Y92882858D01*
X43267142Y92978096D01*
X43267142Y93073334D01*
X43219523Y93168572D01*
X43171904Y93216191D01*
X43076666Y93263810D01*
X42886190Y93311429D01*
X42790952Y93359048D01*
X42743333Y93406667D01*
X42695714Y93501905D01*
X42695714Y93597143D01*
X42743333Y93692381D01*
X42790952Y93740000D01*
X42886190Y93787620D01*
X43124285Y93787620D01*
X43267142Y93740000D01*
X43886190Y93787620D02*
X44076666Y93787620D01*
X44171904Y93740000D01*
X44267142Y93644762D01*
X44314761Y93454286D01*
X44314761Y93120953D01*
X44267142Y92930477D01*
X44171904Y92835239D01*
X44076666Y92787620D01*
X43886190Y92787620D01*
X43790952Y92835239D01*
X43695714Y92930477D01*
X43648095Y93120953D01*
X43648095Y93454286D01*
X43695714Y93644762D01*
X43790952Y93740000D01*
X43886190Y93787620D01*
X45267142Y92787620D02*
X44695714Y92787620D01*
X44981428Y92787620D02*
X44981428Y93787620D01*
X44886190Y93644762D01*
X44790952Y93549524D01*
X44695714Y93501905D01*
X48426190Y98867620D02*
X48426190Y98153334D01*
X48378571Y98010477D01*
X48283333Y97915239D01*
X48140476Y97867620D01*
X48045238Y97867620D01*
X48902380Y97867620D02*
X48902380Y98867620D01*
X49283333Y98867620D01*
X49378571Y98820000D01*
X49426190Y98772381D01*
X49473809Y98677143D01*
X49473809Y98534286D01*
X49426190Y98439048D01*
X49378571Y98391429D01*
X49283333Y98343810D01*
X48902380Y98343810D01*
X49664285Y97772381D02*
X50426190Y97772381D01*
X50664285Y97867620D02*
X50664285Y98867620D01*
X50997619Y98153334D01*
X51330952Y98867620D01*
X51330952Y97867620D01*
X51997619Y98867620D02*
X52188095Y98867620D01*
X52283333Y98820000D01*
X52378571Y98724762D01*
X52426190Y98534286D01*
X52426190Y98200953D01*
X52378571Y98010477D01*
X52283333Y97915239D01*
X52188095Y97867620D01*
X51997619Y97867620D01*
X51902380Y97915239D01*
X51807142Y98010477D01*
X51759523Y98200953D01*
X51759523Y98534286D01*
X51807142Y98724762D01*
X51902380Y98820000D01*
X51997619Y98867620D01*
X52807142Y97915239D02*
X52950000Y97867620D01*
X53188095Y97867620D01*
X53283333Y97915239D01*
X53330952Y97962858D01*
X53378571Y98058096D01*
X53378571Y98153334D01*
X53330952Y98248572D01*
X53283333Y98296191D01*
X53188095Y98343810D01*
X52997619Y98391429D01*
X52902380Y98439048D01*
X52854761Y98486667D01*
X52807142Y98581905D01*
X52807142Y98677143D01*
X52854761Y98772381D01*
X52902380Y98820000D01*
X52997619Y98867620D01*
X53235714Y98867620D01*
X53378571Y98820000D01*
X53807142Y97867620D02*
X53807142Y98867620D01*
X54807142Y97867620D02*
X54235714Y97867620D01*
X54521428Y97867620D02*
X54521428Y98867620D01*
X54426190Y98724762D01*
X54330952Y98629524D01*
X54235714Y98581905D01*
X57475714Y98867620D02*
X57475714Y98153334D01*
X57428095Y98010477D01*
X57332857Y97915239D01*
X57190000Y97867620D01*
X57094761Y97867620D01*
X57951904Y97867620D02*
X57951904Y98867620D01*
X58332857Y98867620D01*
X58428095Y98820000D01*
X58475714Y98772381D01*
X58523333Y98677143D01*
X58523333Y98534286D01*
X58475714Y98439048D01*
X58428095Y98391429D01*
X58332857Y98343810D01*
X57951904Y98343810D01*
X58713809Y97772381D02*
X59475714Y97772381D01*
X59713809Y97867620D02*
X59713809Y98534286D01*
X59713809Y98343810D02*
X59761428Y98439048D01*
X59809047Y98486667D01*
X59904285Y98534286D01*
X59999523Y98534286D01*
X60285238Y97915239D02*
X60380476Y97867620D01*
X60570952Y97867620D01*
X60666190Y97915239D01*
X60713809Y98010477D01*
X60713809Y98058096D01*
X60666190Y98153334D01*
X60570952Y98200953D01*
X60428095Y98200953D01*
X60332857Y98248572D01*
X60285238Y98343810D01*
X60285238Y98391429D01*
X60332857Y98486667D01*
X60428095Y98534286D01*
X60570952Y98534286D01*
X60666190Y98486667D01*
X60999523Y98534286D02*
X61380476Y98534286D01*
X61142380Y98867620D02*
X61142380Y98010477D01*
X61190000Y97915239D01*
X61285238Y97867620D01*
X61380476Y97867620D01*
X62237619Y97867620D02*
X61666190Y97867620D01*
X61951904Y97867620D02*
X61951904Y98867620D01*
X61856666Y98724762D01*
X61761428Y98629524D01*
X61666190Y98581905D01*
X38814761Y98867620D02*
X38814761Y98153334D01*
X38767142Y98010477D01*
X38671904Y97915239D01*
X38529047Y97867620D01*
X38433809Y97867620D01*
X39290952Y97867620D02*
X39290952Y98867620D01*
X39671904Y98867620D01*
X39767142Y98820000D01*
X39814761Y98772381D01*
X39862380Y98677143D01*
X39862380Y98534286D01*
X39814761Y98439048D01*
X39767142Y98391429D01*
X39671904Y98343810D01*
X39290952Y98343810D01*
X40052857Y97772381D02*
X40814761Y97772381D01*
X41005238Y97915239D02*
X41148095Y97867620D01*
X41386190Y97867620D01*
X41481428Y97915239D01*
X41529047Y97962858D01*
X41576666Y98058096D01*
X41576666Y98153334D01*
X41529047Y98248572D01*
X41481428Y98296191D01*
X41386190Y98343810D01*
X41195714Y98391429D01*
X41100476Y98439048D01*
X41052857Y98486667D01*
X41005238Y98581905D01*
X41005238Y98677143D01*
X41052857Y98772381D01*
X41100476Y98820000D01*
X41195714Y98867620D01*
X41433809Y98867620D01*
X41576666Y98820000D01*
X42576666Y97962858D02*
X42529047Y97915239D01*
X42386190Y97867620D01*
X42290952Y97867620D01*
X42148095Y97915239D01*
X42052857Y98010477D01*
X42005238Y98105715D01*
X41957619Y98296191D01*
X41957619Y98439048D01*
X42005238Y98629524D01*
X42052857Y98724762D01*
X42148095Y98820000D01*
X42290952Y98867620D01*
X42386190Y98867620D01*
X42529047Y98820000D01*
X42576666Y98772381D01*
X43481428Y97867620D02*
X43005238Y97867620D01*
X43005238Y98867620D01*
X43814761Y97867620D02*
X43814761Y98867620D01*
X44386190Y97867620D02*
X43957619Y98439048D01*
X44386190Y98867620D02*
X43814761Y98296191D01*
X45338571Y97867620D02*
X44767142Y97867620D01*
X45052857Y97867620D02*
X45052857Y98867620D01*
X44957619Y98724762D01*
X44862380Y98629524D01*
X44767142Y98581905D01*
X49253333Y93787620D02*
X49253333Y93073334D01*
X49205714Y92930477D01*
X49110476Y92835239D01*
X48967619Y92787620D01*
X48872380Y92787620D01*
X49729523Y92787620D02*
X49729523Y93787620D01*
X50110476Y93787620D01*
X50205714Y93740000D01*
X50253333Y93692381D01*
X50300952Y93597143D01*
X50300952Y93454286D01*
X50253333Y93359048D01*
X50205714Y93311429D01*
X50110476Y93263810D01*
X49729523Y93263810D01*
X50491428Y92692381D02*
X51253333Y92692381D01*
X51443809Y92835239D02*
X51586666Y92787620D01*
X51824761Y92787620D01*
X51920000Y92835239D01*
X51967619Y92882858D01*
X52015238Y92978096D01*
X52015238Y93073334D01*
X51967619Y93168572D01*
X51920000Y93216191D01*
X51824761Y93263810D01*
X51634285Y93311429D01*
X51539047Y93359048D01*
X51491428Y93406667D01*
X51443809Y93501905D01*
X51443809Y93597143D01*
X51491428Y93692381D01*
X51539047Y93740000D01*
X51634285Y93787620D01*
X51872380Y93787620D01*
X52015238Y93740000D01*
X52396190Y92835239D02*
X52539047Y92787620D01*
X52777142Y92787620D01*
X52872380Y92835239D01*
X52920000Y92882858D01*
X52967619Y92978096D01*
X52967619Y93073334D01*
X52920000Y93168572D01*
X52872380Y93216191D01*
X52777142Y93263810D01*
X52586666Y93311429D01*
X52491428Y93359048D01*
X52443809Y93406667D01*
X52396190Y93501905D01*
X52396190Y93597143D01*
X52443809Y93692381D01*
X52491428Y93740000D01*
X52586666Y93787620D01*
X52824761Y93787620D01*
X52967619Y93740000D01*
X53920000Y92787620D02*
X53348571Y92787620D01*
X53634285Y92787620D02*
X53634285Y93787620D01*
X53539047Y93644762D01*
X53443809Y93549524D01*
X53348571Y93501905D01*
X66960952Y54097620D02*
X66960952Y53383334D01*
X66913333Y53240477D01*
X66818095Y53145239D01*
X66675238Y53097620D01*
X66580000Y53097620D01*
X67437142Y53764286D02*
X67437142Y52764286D01*
X67437142Y53716667D02*
X67532380Y53764286D01*
X67722857Y53764286D01*
X67818095Y53716667D01*
X67865714Y53669048D01*
X67913333Y53573810D01*
X67913333Y53288096D01*
X67865714Y53192858D01*
X67818095Y53145239D01*
X67722857Y53097620D01*
X67532380Y53097620D01*
X67437142Y53145239D01*
X68246666Y53764286D02*
X68437142Y53097620D01*
X68627619Y53573810D01*
X68818095Y53097620D01*
X69008571Y53764286D01*
X69389523Y53097620D02*
X69389523Y53764286D01*
X69389523Y53573810D02*
X69437142Y53669048D01*
X69484761Y53716667D01*
X69580000Y53764286D01*
X69675238Y53764286D01*
X70532380Y53097620D02*
X69960952Y53097620D01*
X70246666Y53097620D02*
X70246666Y54097620D01*
X70151428Y53954762D01*
X70056190Y53859524D01*
X69960952Y53811905D01*
X61880952Y54097620D02*
X61880952Y53383334D01*
X61833333Y53240477D01*
X61738095Y53145239D01*
X61595238Y53097620D01*
X61500000Y53097620D01*
X62357142Y53764286D02*
X62357142Y52764286D01*
X62357142Y53716667D02*
X62452380Y53764286D01*
X62642857Y53764286D01*
X62738095Y53716667D01*
X62785714Y53669048D01*
X62833333Y53573810D01*
X62833333Y53288096D01*
X62785714Y53192858D01*
X62738095Y53145239D01*
X62642857Y53097620D01*
X62452380Y53097620D01*
X62357142Y53145239D01*
X63166666Y53764286D02*
X63357142Y53097620D01*
X63547619Y53573810D01*
X63738095Y53097620D01*
X63928571Y53764286D01*
X64309523Y53097620D02*
X64309523Y53764286D01*
X64309523Y53573810D02*
X64357142Y53669048D01*
X64404761Y53716667D01*
X64500000Y53764286D01*
X64595238Y53764286D01*
X64880952Y54002381D02*
X64928571Y54050000D01*
X65023809Y54097620D01*
X65261904Y54097620D01*
X65357142Y54050000D01*
X65404761Y54002381D01*
X65452380Y53907143D01*
X65452380Y53811905D01*
X65404761Y53669048D01*
X64833333Y53097620D01*
X65452380Y53097620D01*
X4730952Y54097620D02*
X4730952Y53383334D01*
X4683333Y53240477D01*
X4588095Y53145239D01*
X4445238Y53097620D01*
X4350000Y53097620D01*
X5207142Y53764286D02*
X5207142Y52764286D01*
X5207142Y53716667D02*
X5302380Y53764286D01*
X5492857Y53764286D01*
X5588095Y53716667D01*
X5635714Y53669048D01*
X5683333Y53573810D01*
X5683333Y53288096D01*
X5635714Y53192858D01*
X5588095Y53145239D01*
X5492857Y53097620D01*
X5302380Y53097620D01*
X5207142Y53145239D01*
X6016666Y53764286D02*
X6207142Y53097620D01*
X6397619Y53573810D01*
X6588095Y53097620D01*
X6778571Y53764286D01*
X7159523Y53097620D02*
X7159523Y53764286D01*
X7159523Y53573810D02*
X7207142Y53669048D01*
X7254761Y53716667D01*
X7350000Y53764286D01*
X7445238Y53764286D01*
X7683333Y54097620D02*
X8302380Y54097620D01*
X7969047Y53716667D01*
X8111904Y53716667D01*
X8207142Y53669048D01*
X8254761Y53621429D01*
X8302380Y53526191D01*
X8302380Y53288096D01*
X8254761Y53192858D01*
X8207142Y53145239D01*
X8111904Y53097620D01*
X7826190Y53097620D01*
X7730952Y53145239D01*
X7683333Y53192858D01*
X94059523Y53887620D02*
X94059523Y53173334D01*
X94011904Y53030477D01*
X93916666Y52935239D01*
X93773809Y52887620D01*
X93678571Y52887620D01*
X94488095Y52935239D02*
X94583333Y52887620D01*
X94773809Y52887620D01*
X94869047Y52935239D01*
X94916666Y53030477D01*
X94916666Y53078096D01*
X94869047Y53173334D01*
X94773809Y53220953D01*
X94630952Y53220953D01*
X94535714Y53268572D01*
X94488095Y53363810D01*
X94488095Y53411429D01*
X94535714Y53506667D01*
X94630952Y53554286D01*
X94773809Y53554286D01*
X94869047Y53506667D01*
X95345238Y53554286D02*
X95345238Y52554286D01*
X95345238Y53506667D02*
X95440476Y53554286D01*
X95630952Y53554286D01*
X95726190Y53506667D01*
X95773809Y53459048D01*
X95821428Y53363810D01*
X95821428Y53078096D01*
X95773809Y52982858D01*
X95726190Y52935239D01*
X95630952Y52887620D01*
X95440476Y52887620D01*
X95345238Y52935239D01*
X96773809Y52887620D02*
X96202380Y52887620D01*
X96488095Y52887620D02*
X96488095Y53887620D01*
X96392857Y53744762D01*
X96297619Y53649524D01*
X96202380Y53601905D01*
X14572380Y31083334D02*
X14572380Y30607143D01*
X13572380Y30607143D01*
X14572380Y31416667D02*
X13572380Y31416667D01*
X13572380Y31654762D01*
X13620000Y31797620D01*
X13715238Y31892858D01*
X13810476Y31940477D01*
X14000952Y31988096D01*
X14143809Y31988096D01*
X14334285Y31940477D01*
X14429523Y31892858D01*
X14524761Y31797620D01*
X14572380Y31654762D01*
X14572380Y31416667D01*
X14572380Y32940477D02*
X14572380Y32369048D01*
X14572380Y32654762D02*
X13572380Y32654762D01*
X13715238Y32559524D01*
X13810476Y32464286D01*
X13858095Y32369048D01*
X18382380Y38703334D02*
X18382380Y38227143D01*
X17382380Y38227143D01*
X18382380Y39036667D02*
X17382380Y39036667D01*
X17382380Y39274762D01*
X17430000Y39417620D01*
X17525238Y39512858D01*
X17620476Y39560477D01*
X17810952Y39608096D01*
X17953809Y39608096D01*
X18144285Y39560477D01*
X18239523Y39512858D01*
X18334761Y39417620D01*
X18382380Y39274762D01*
X18382380Y39036667D01*
X17477619Y39989048D02*
X17430000Y40036667D01*
X17382380Y40131905D01*
X17382380Y40370000D01*
X17430000Y40465239D01*
X17477619Y40512858D01*
X17572857Y40560477D01*
X17668095Y40560477D01*
X17810952Y40512858D01*
X18382380Y39941429D01*
X18382380Y40560477D01*
X24732380Y31083334D02*
X24732380Y30607143D01*
X23732380Y30607143D01*
X24732380Y31416667D02*
X23732380Y31416667D01*
X23732380Y31654762D01*
X23780000Y31797620D01*
X23875238Y31892858D01*
X23970476Y31940477D01*
X24160952Y31988096D01*
X24303809Y31988096D01*
X24494285Y31940477D01*
X24589523Y31892858D01*
X24684761Y31797620D01*
X24732380Y31654762D01*
X24732380Y31416667D01*
X23732380Y32321429D02*
X23732380Y32940477D01*
X24113333Y32607143D01*
X24113333Y32750000D01*
X24160952Y32845239D01*
X24208571Y32892858D01*
X24303809Y32940477D01*
X24541904Y32940477D01*
X24637142Y32892858D01*
X24684761Y32845239D01*
X24732380Y32750000D01*
X24732380Y32464286D01*
X24684761Y32369048D01*
X24637142Y32321429D01*
X31082380Y38703334D02*
X31082380Y38227143D01*
X30082380Y38227143D01*
X31082380Y39036667D02*
X30082380Y39036667D01*
X30082380Y39274762D01*
X30130000Y39417620D01*
X30225238Y39512858D01*
X30320476Y39560477D01*
X30510952Y39608096D01*
X30653809Y39608096D01*
X30844285Y39560477D01*
X30939523Y39512858D01*
X31034761Y39417620D01*
X31082380Y39274762D01*
X31082380Y39036667D01*
X30415714Y40465239D02*
X31082380Y40465239D01*
X30034761Y40227143D02*
X30749047Y39989048D01*
X30749047Y40608096D01*
X34892380Y31083334D02*
X34892380Y30607143D01*
X33892380Y30607143D01*
X34892380Y31416667D02*
X33892380Y31416667D01*
X33892380Y31654762D01*
X33940000Y31797620D01*
X34035238Y31892858D01*
X34130476Y31940477D01*
X34320952Y31988096D01*
X34463809Y31988096D01*
X34654285Y31940477D01*
X34749523Y31892858D01*
X34844761Y31797620D01*
X34892380Y31654762D01*
X34892380Y31416667D01*
X33892380Y32892858D02*
X33892380Y32416667D01*
X34368571Y32369048D01*
X34320952Y32416667D01*
X34273333Y32511905D01*
X34273333Y32750000D01*
X34320952Y32845239D01*
X34368571Y32892858D01*
X34463809Y32940477D01*
X34701904Y32940477D01*
X34797142Y32892858D01*
X34844761Y32845239D01*
X34892380Y32750000D01*
X34892380Y32511905D01*
X34844761Y32416667D01*
X34797142Y32369048D01*
X45052380Y31083334D02*
X45052380Y30607143D01*
X44052380Y30607143D01*
X45052380Y31416667D02*
X44052380Y31416667D01*
X44052380Y31654762D01*
X44100000Y31797620D01*
X44195238Y31892858D01*
X44290476Y31940477D01*
X44480952Y31988096D01*
X44623809Y31988096D01*
X44814285Y31940477D01*
X44909523Y31892858D01*
X45004761Y31797620D01*
X45052380Y31654762D01*
X45052380Y31416667D01*
X44052380Y32845239D02*
X44052380Y32654762D01*
X44100000Y32559524D01*
X44147619Y32511905D01*
X44290476Y32416667D01*
X44480952Y32369048D01*
X44861904Y32369048D01*
X44957142Y32416667D01*
X45004761Y32464286D01*
X45052380Y32559524D01*
X45052380Y32750000D01*
X45004761Y32845239D01*
X44957142Y32892858D01*
X44861904Y32940477D01*
X44623809Y32940477D01*
X44528571Y32892858D01*
X44480952Y32845239D01*
X44433333Y32750000D01*
X44433333Y32559524D01*
X44480952Y32464286D01*
X44528571Y32416667D01*
X44623809Y32369048D01*
X50132380Y38703334D02*
X50132380Y38227143D01*
X49132380Y38227143D01*
X50132380Y39036667D02*
X49132380Y39036667D01*
X49132380Y39274762D01*
X49180000Y39417620D01*
X49275238Y39512858D01*
X49370476Y39560477D01*
X49560952Y39608096D01*
X49703809Y39608096D01*
X49894285Y39560477D01*
X49989523Y39512858D01*
X50084761Y39417620D01*
X50132380Y39274762D01*
X50132380Y39036667D01*
X49132380Y39941429D02*
X49132380Y40608096D01*
X50132380Y40179524D01*
X59022380Y31083334D02*
X59022380Y30607143D01*
X58022380Y30607143D01*
X59022380Y31416667D02*
X58022380Y31416667D01*
X58022380Y31654762D01*
X58070000Y31797620D01*
X58165238Y31892858D01*
X58260476Y31940477D01*
X58450952Y31988096D01*
X58593809Y31988096D01*
X58784285Y31940477D01*
X58879523Y31892858D01*
X58974761Y31797620D01*
X59022380Y31654762D01*
X59022380Y31416667D01*
X58450952Y32559524D02*
X58403333Y32464286D01*
X58355714Y32416667D01*
X58260476Y32369048D01*
X58212857Y32369048D01*
X58117619Y32416667D01*
X58070000Y32464286D01*
X58022380Y32559524D01*
X58022380Y32750000D01*
X58070000Y32845239D01*
X58117619Y32892858D01*
X58212857Y32940477D01*
X58260476Y32940477D01*
X58355714Y32892858D01*
X58403333Y32845239D01*
X58450952Y32750000D01*
X58450952Y32559524D01*
X58498571Y32464286D01*
X58546190Y32416667D01*
X58641428Y32369048D01*
X58831904Y32369048D01*
X58927142Y32416667D01*
X58974761Y32464286D01*
X59022380Y32559524D01*
X59022380Y32750000D01*
X58974761Y32845239D01*
X58927142Y32892858D01*
X58831904Y32940477D01*
X58641428Y32940477D01*
X58546190Y32892858D01*
X58498571Y32845239D01*
X58450952Y32750000D01*
X62832380Y38703334D02*
X62832380Y38227143D01*
X61832380Y38227143D01*
X62832380Y39036667D02*
X61832380Y39036667D01*
X61832380Y39274762D01*
X61880000Y39417620D01*
X61975238Y39512858D01*
X62070476Y39560477D01*
X62260952Y39608096D01*
X62403809Y39608096D01*
X62594285Y39560477D01*
X62689523Y39512858D01*
X62784761Y39417620D01*
X62832380Y39274762D01*
X62832380Y39036667D01*
X62832380Y40084286D02*
X62832380Y40274762D01*
X62784761Y40370000D01*
X62737142Y40417620D01*
X62594285Y40512858D01*
X62403809Y40560477D01*
X62022857Y40560477D01*
X61927619Y40512858D01*
X61880000Y40465239D01*
X61832380Y40370000D01*
X61832380Y40179524D01*
X61880000Y40084286D01*
X61927619Y40036667D01*
X62022857Y39989048D01*
X62260952Y39989048D01*
X62356190Y40036667D01*
X62403809Y40084286D01*
X62451428Y40179524D01*
X62451428Y40370000D01*
X62403809Y40465239D01*
X62356190Y40512858D01*
X62260952Y40560477D01*
X69182380Y30607143D02*
X69182380Y30130953D01*
X68182380Y30130953D01*
X69182380Y30940477D02*
X68182380Y30940477D01*
X68182380Y31178572D01*
X68230000Y31321429D01*
X68325238Y31416667D01*
X68420476Y31464286D01*
X68610952Y31511905D01*
X68753809Y31511905D01*
X68944285Y31464286D01*
X69039523Y31416667D01*
X69134761Y31321429D01*
X69182380Y31178572D01*
X69182380Y30940477D01*
X69182380Y32464286D02*
X69182380Y31892858D01*
X69182380Y32178572D02*
X68182380Y32178572D01*
X68325238Y32083334D01*
X68420476Y31988096D01*
X68468095Y31892858D01*
X68182380Y33083334D02*
X68182380Y33178572D01*
X68230000Y33273810D01*
X68277619Y33321429D01*
X68372857Y33369048D01*
X68563333Y33416667D01*
X68801428Y33416667D01*
X68991904Y33369048D01*
X69087142Y33321429D01*
X69134761Y33273810D01*
X69182380Y33178572D01*
X69182380Y33083334D01*
X69134761Y32988096D01*
X69087142Y32940477D01*
X68991904Y32892858D01*
X68801428Y32845239D01*
X68563333Y32845239D01*
X68372857Y32892858D01*
X68277619Y32940477D01*
X68230000Y32988096D01*
X68182380Y33083334D01*
X75532380Y38227143D02*
X75532380Y37750953D01*
X74532380Y37750953D01*
X75532380Y38560477D02*
X74532380Y38560477D01*
X74532380Y38798572D01*
X74580000Y38941429D01*
X74675238Y39036667D01*
X74770476Y39084286D01*
X74960952Y39131905D01*
X75103809Y39131905D01*
X75294285Y39084286D01*
X75389523Y39036667D01*
X75484761Y38941429D01*
X75532380Y38798572D01*
X75532380Y38560477D01*
X75532380Y40084286D02*
X75532380Y39512858D01*
X75532380Y39798572D02*
X74532380Y39798572D01*
X74675238Y39703334D01*
X74770476Y39608096D01*
X74818095Y39512858D01*
X75532380Y41036667D02*
X75532380Y40465239D01*
X75532380Y40750953D02*
X74532380Y40750953D01*
X74675238Y40655715D01*
X74770476Y40560477D01*
X74818095Y40465239D01*
X80612380Y30607143D02*
X80612380Y30130953D01*
X79612380Y30130953D01*
X80612380Y30940477D02*
X79612380Y30940477D01*
X79612380Y31178572D01*
X79660000Y31321429D01*
X79755238Y31416667D01*
X79850476Y31464286D01*
X80040952Y31511905D01*
X80183809Y31511905D01*
X80374285Y31464286D01*
X80469523Y31416667D01*
X80564761Y31321429D01*
X80612380Y31178572D01*
X80612380Y30940477D01*
X80612380Y32464286D02*
X80612380Y31892858D01*
X80612380Y32178572D02*
X79612380Y32178572D01*
X79755238Y32083334D01*
X79850476Y31988096D01*
X79898095Y31892858D01*
X79707619Y32845239D02*
X79660000Y32892858D01*
X79612380Y32988096D01*
X79612380Y33226191D01*
X79660000Y33321429D01*
X79707619Y33369048D01*
X79802857Y33416667D01*
X79898095Y33416667D01*
X80040952Y33369048D01*
X80612380Y32797620D01*
X80612380Y33416667D01*
X5702380Y38941429D02*
X5226190Y38608096D01*
X5702380Y38370000D02*
X4702380Y38370000D01*
X4702380Y38750953D01*
X4750000Y38846191D01*
X4797619Y38893810D01*
X4892857Y38941429D01*
X5035714Y38941429D01*
X5130952Y38893810D01*
X5178571Y38846191D01*
X5226190Y38750953D01*
X5226190Y38370000D01*
X5702380Y39512858D02*
X5654761Y39417620D01*
X5559523Y39370000D01*
X4702380Y39370000D01*
X5702380Y40417620D02*
X5702380Y39846191D01*
X5702380Y40131905D02*
X4702380Y40131905D01*
X4845238Y40036667D01*
X4940476Y39941429D01*
X4988095Y39846191D01*
X13541428Y46367620D02*
X13208095Y46843810D01*
X12970000Y46367620D02*
X12970000Y47367620D01*
X13350952Y47367620D01*
X13446190Y47320000D01*
X13493809Y47272381D01*
X13541428Y47177143D01*
X13541428Y47034286D01*
X13493809Y46939048D01*
X13446190Y46891429D01*
X13350952Y46843810D01*
X12970000Y46843810D01*
X14112857Y46367620D02*
X14017619Y46415239D01*
X13970000Y46510477D01*
X13970000Y47367620D01*
X14446190Y47272381D02*
X14493809Y47320000D01*
X14589047Y47367620D01*
X14827142Y47367620D01*
X14922380Y47320000D01*
X14970000Y47272381D01*
X15017619Y47177143D01*
X15017619Y47081905D01*
X14970000Y46939048D01*
X14398571Y46367620D01*
X15017619Y46367620D01*
X20772380Y44021429D02*
X20296190Y43688096D01*
X20772380Y43450000D02*
X19772380Y43450000D01*
X19772380Y43830953D01*
X19820000Y43926191D01*
X19867619Y43973810D01*
X19962857Y44021429D01*
X20105714Y44021429D01*
X20200952Y43973810D01*
X20248571Y43926191D01*
X20296190Y43830953D01*
X20296190Y43450000D01*
X20772380Y44592858D02*
X20724761Y44497620D01*
X20629523Y44450000D01*
X19772380Y44450000D01*
X19772380Y44878572D02*
X19772380Y45497620D01*
X20153333Y45164286D01*
X20153333Y45307143D01*
X20200952Y45402381D01*
X20248571Y45450000D01*
X20343809Y45497620D01*
X20581904Y45497620D01*
X20677142Y45450000D01*
X20724761Y45402381D01*
X20772380Y45307143D01*
X20772380Y45021429D01*
X20724761Y44926191D01*
X20677142Y44878572D01*
X26241428Y46367620D02*
X25908095Y46843810D01*
X25670000Y46367620D02*
X25670000Y47367620D01*
X26050952Y47367620D01*
X26146190Y47320000D01*
X26193809Y47272381D01*
X26241428Y47177143D01*
X26241428Y47034286D01*
X26193809Y46939048D01*
X26146190Y46891429D01*
X26050952Y46843810D01*
X25670000Y46843810D01*
X26812857Y46367620D02*
X26717619Y46415239D01*
X26670000Y46510477D01*
X26670000Y47367620D01*
X27622380Y47034286D02*
X27622380Y46367620D01*
X27384285Y47415239D02*
X27146190Y46700953D01*
X27765238Y46700953D01*
X34742380Y44021429D02*
X34266190Y43688096D01*
X34742380Y43450000D02*
X33742380Y43450000D01*
X33742380Y43830953D01*
X33790000Y43926191D01*
X33837619Y43973810D01*
X33932857Y44021429D01*
X34075714Y44021429D01*
X34170952Y43973810D01*
X34218571Y43926191D01*
X34266190Y43830953D01*
X34266190Y43450000D01*
X34742380Y44592858D02*
X34694761Y44497620D01*
X34599523Y44450000D01*
X33742380Y44450000D01*
X33742380Y45450000D02*
X33742380Y44973810D01*
X34218571Y44926191D01*
X34170952Y44973810D01*
X34123333Y45069048D01*
X34123333Y45307143D01*
X34170952Y45402381D01*
X34218571Y45450000D01*
X34313809Y45497620D01*
X34551904Y45497620D01*
X34647142Y45450000D01*
X34694761Y45402381D01*
X34742380Y45307143D01*
X34742380Y45069048D01*
X34694761Y44973810D01*
X34647142Y44926191D01*
X36817380Y38941429D02*
X36341190Y38608096D01*
X36817380Y38370000D02*
X35817380Y38370000D01*
X35817380Y38750953D01*
X35865000Y38846191D01*
X35912619Y38893810D01*
X36007857Y38941429D01*
X36150714Y38941429D01*
X36245952Y38893810D01*
X36293571Y38846191D01*
X36341190Y38750953D01*
X36341190Y38370000D01*
X36817380Y39512858D02*
X36769761Y39417620D01*
X36674523Y39370000D01*
X35817380Y39370000D01*
X35817380Y40322381D02*
X35817380Y40131905D01*
X35865000Y40036667D01*
X35912619Y39989048D01*
X36055476Y39893810D01*
X36245952Y39846191D01*
X36626904Y39846191D01*
X36722142Y39893810D01*
X36769761Y39941429D01*
X36817380Y40036667D01*
X36817380Y40227143D01*
X36769761Y40322381D01*
X36722142Y40370000D01*
X36626904Y40417620D01*
X36388809Y40417620D01*
X36293571Y40370000D01*
X36245952Y40322381D01*
X36198333Y40227143D01*
X36198333Y40036667D01*
X36245952Y39941429D01*
X36293571Y39893810D01*
X36388809Y39846191D01*
X44021428Y46367620D02*
X43688095Y46843810D01*
X43450000Y46367620D02*
X43450000Y47367620D01*
X43830952Y47367620D01*
X43926190Y47320000D01*
X43973809Y47272381D01*
X44021428Y47177143D01*
X44021428Y47034286D01*
X43973809Y46939048D01*
X43926190Y46891429D01*
X43830952Y46843810D01*
X43450000Y46843810D01*
X44592857Y46367620D02*
X44497619Y46415239D01*
X44450000Y46510477D01*
X44450000Y47367620D01*
X44878571Y47367620D02*
X45545238Y47367620D01*
X45116666Y46367620D01*
X51252380Y44021429D02*
X50776190Y43688096D01*
X51252380Y43450000D02*
X50252380Y43450000D01*
X50252380Y43830953D01*
X50300000Y43926191D01*
X50347619Y43973810D01*
X50442857Y44021429D01*
X50585714Y44021429D01*
X50680952Y43973810D01*
X50728571Y43926191D01*
X50776190Y43830953D01*
X50776190Y43450000D01*
X51252380Y44592858D02*
X51204761Y44497620D01*
X51109523Y44450000D01*
X50252380Y44450000D01*
X50680952Y45116667D02*
X50633333Y45021429D01*
X50585714Y44973810D01*
X50490476Y44926191D01*
X50442857Y44926191D01*
X50347619Y44973810D01*
X50300000Y45021429D01*
X50252380Y45116667D01*
X50252380Y45307143D01*
X50300000Y45402381D01*
X50347619Y45450000D01*
X50442857Y45497620D01*
X50490476Y45497620D01*
X50585714Y45450000D01*
X50633333Y45402381D01*
X50680952Y45307143D01*
X50680952Y45116667D01*
X50728571Y45021429D01*
X50776190Y44973810D01*
X50871428Y44926191D01*
X51061904Y44926191D01*
X51157142Y44973810D01*
X51204761Y45021429D01*
X51252380Y45116667D01*
X51252380Y45307143D01*
X51204761Y45402381D01*
X51157142Y45450000D01*
X51061904Y45497620D01*
X50871428Y45497620D01*
X50776190Y45450000D01*
X50728571Y45402381D01*
X50680952Y45307143D01*
X57991428Y46367620D02*
X57658095Y46843810D01*
X57420000Y46367620D02*
X57420000Y47367620D01*
X57800952Y47367620D01*
X57896190Y47320000D01*
X57943809Y47272381D01*
X57991428Y47177143D01*
X57991428Y47034286D01*
X57943809Y46939048D01*
X57896190Y46891429D01*
X57800952Y46843810D01*
X57420000Y46843810D01*
X58562857Y46367620D02*
X58467619Y46415239D01*
X58420000Y46510477D01*
X58420000Y47367620D01*
X58991428Y46367620D02*
X59181904Y46367620D01*
X59277142Y46415239D01*
X59324761Y46462858D01*
X59420000Y46605715D01*
X59467619Y46796191D01*
X59467619Y47177143D01*
X59420000Y47272381D01*
X59372380Y47320000D01*
X59277142Y47367620D01*
X59086666Y47367620D01*
X58991428Y47320000D01*
X58943809Y47272381D01*
X58896190Y47177143D01*
X58896190Y46939048D01*
X58943809Y46843810D01*
X58991428Y46796191D01*
X59086666Y46748572D01*
X59277142Y46748572D01*
X59372380Y46796191D01*
X59420000Y46843810D01*
X59467619Y46939048D01*
X65222380Y44815239D02*
X64746190Y44481905D01*
X65222380Y44243810D02*
X64222380Y44243810D01*
X64222380Y44624762D01*
X64270000Y44720000D01*
X64317619Y44767620D01*
X64412857Y44815239D01*
X64555714Y44815239D01*
X64650952Y44767620D01*
X64698571Y44720000D01*
X64746190Y44624762D01*
X64746190Y44243810D01*
X65222380Y45386667D02*
X65174761Y45291429D01*
X65079523Y45243810D01*
X64222380Y45243810D01*
X65222380Y46291429D02*
X65222380Y45720000D01*
X65222380Y46005715D02*
X64222380Y46005715D01*
X64365238Y45910477D01*
X64460476Y45815239D01*
X64508095Y45720000D01*
X64222380Y46910477D02*
X64222380Y47005715D01*
X64270000Y47100953D01*
X64317619Y47148572D01*
X64412857Y47196191D01*
X64603333Y47243810D01*
X64841428Y47243810D01*
X65031904Y47196191D01*
X65127142Y47148572D01*
X65174761Y47100953D01*
X65222380Y47005715D01*
X65222380Y46910477D01*
X65174761Y46815239D01*
X65127142Y46767620D01*
X65031904Y46720000D01*
X64841428Y46672381D01*
X64603333Y46672381D01*
X64412857Y46720000D01*
X64317619Y46767620D01*
X64270000Y46815239D01*
X64222380Y46910477D01*
X71485238Y46367620D02*
X71151904Y46843810D01*
X70913809Y46367620D02*
X70913809Y47367620D01*
X71294761Y47367620D01*
X71390000Y47320000D01*
X71437619Y47272381D01*
X71485238Y47177143D01*
X71485238Y47034286D01*
X71437619Y46939048D01*
X71390000Y46891429D01*
X71294761Y46843810D01*
X70913809Y46843810D01*
X72056666Y46367620D02*
X71961428Y46415239D01*
X71913809Y46510477D01*
X71913809Y47367620D01*
X72961428Y46367620D02*
X72390000Y46367620D01*
X72675714Y46367620D02*
X72675714Y47367620D01*
X72580476Y47224762D01*
X72485238Y47129524D01*
X72390000Y47081905D01*
X73913809Y46367620D02*
X73342380Y46367620D01*
X73628095Y46367620D02*
X73628095Y47367620D01*
X73532857Y47224762D01*
X73437619Y47129524D01*
X73342380Y47081905D01*
X81732380Y38465239D02*
X81256190Y38131905D01*
X81732380Y37893810D02*
X80732380Y37893810D01*
X80732380Y38274762D01*
X80780000Y38370000D01*
X80827619Y38417620D01*
X80922857Y38465239D01*
X81065714Y38465239D01*
X81160952Y38417620D01*
X81208571Y38370000D01*
X81256190Y38274762D01*
X81256190Y37893810D01*
X81732380Y39036667D02*
X81684761Y38941429D01*
X81589523Y38893810D01*
X80732380Y38893810D01*
X81732380Y39941429D02*
X81732380Y39370000D01*
X81732380Y39655715D02*
X80732380Y39655715D01*
X80875238Y39560477D01*
X80970476Y39465239D01*
X81018095Y39370000D01*
X80827619Y40322381D02*
X80780000Y40370000D01*
X80732380Y40465239D01*
X80732380Y40703334D01*
X80780000Y40798572D01*
X80827619Y40846191D01*
X80922857Y40893810D01*
X81018095Y40893810D01*
X81160952Y40846191D01*
X81732380Y40274762D01*
X81732380Y40893810D01*
X60312380Y66175239D02*
X59836190Y65841905D01*
X60312380Y65603810D02*
X59312380Y65603810D01*
X59312380Y65984762D01*
X59360000Y66080000D01*
X59407619Y66127620D01*
X59502857Y66175239D01*
X59645714Y66175239D01*
X59740952Y66127620D01*
X59788571Y66080000D01*
X59836190Y65984762D01*
X59836190Y65603810D01*
X59645714Y66603810D02*
X60645714Y66603810D01*
X59693333Y66603810D02*
X59645714Y66699048D01*
X59645714Y66889524D01*
X59693333Y66984762D01*
X59740952Y67032381D01*
X59836190Y67080000D01*
X60121904Y67080000D01*
X60217142Y67032381D01*
X60264761Y66984762D01*
X60312380Y66889524D01*
X60312380Y66699048D01*
X60264761Y66603810D01*
X60407619Y67270477D02*
X60407619Y68032381D01*
X60217142Y68841905D02*
X60264761Y68794286D01*
X60312380Y68651429D01*
X60312380Y68556191D01*
X60264761Y68413334D01*
X60169523Y68318096D01*
X60074285Y68270477D01*
X59883809Y68222858D01*
X59740952Y68222858D01*
X59550476Y68270477D01*
X59455238Y68318096D01*
X59360000Y68413334D01*
X59312380Y68556191D01*
X59312380Y68651429D01*
X59360000Y68794286D01*
X59407619Y68841905D01*
X60312380Y69746667D02*
X60312380Y69270477D01*
X59312380Y69270477D01*
X60312380Y70080000D02*
X59312380Y70080000D01*
X60312380Y70651429D02*
X59740952Y70222858D01*
X59312380Y70651429D02*
X59883809Y70080000D01*
X60312380Y71603810D02*
X60312380Y71032381D01*
X60312380Y71318096D02*
X59312380Y71318096D01*
X59455238Y71222858D01*
X59550476Y71127620D01*
X59598095Y71032381D01*
X55232380Y68715239D02*
X54756190Y68381905D01*
X55232380Y68143810D02*
X54232380Y68143810D01*
X54232380Y68524762D01*
X54280000Y68620000D01*
X54327619Y68667620D01*
X54422857Y68715239D01*
X54565714Y68715239D01*
X54660952Y68667620D01*
X54708571Y68620000D01*
X54756190Y68524762D01*
X54756190Y68143810D01*
X54565714Y69143810D02*
X55565714Y69143810D01*
X54613333Y69143810D02*
X54565714Y69239048D01*
X54565714Y69429524D01*
X54613333Y69524762D01*
X54660952Y69572381D01*
X54756190Y69620000D01*
X55041904Y69620000D01*
X55137142Y69572381D01*
X55184761Y69524762D01*
X55232380Y69429524D01*
X55232380Y69239048D01*
X55184761Y69143810D01*
X55327619Y69810477D02*
X55327619Y70572381D01*
X55184761Y70762858D02*
X55232380Y70905715D01*
X55232380Y71143810D01*
X55184761Y71239048D01*
X55137142Y71286667D01*
X55041904Y71334286D01*
X54946666Y71334286D01*
X54851428Y71286667D01*
X54803809Y71239048D01*
X54756190Y71143810D01*
X54708571Y70953334D01*
X54660952Y70858096D01*
X54613333Y70810477D01*
X54518095Y70762858D01*
X54422857Y70762858D01*
X54327619Y70810477D01*
X54280000Y70858096D01*
X54232380Y70953334D01*
X54232380Y71191429D01*
X54280000Y71334286D01*
X55232380Y71762858D02*
X54232380Y71762858D01*
X54232380Y72000953D01*
X54280000Y72143810D01*
X54375238Y72239048D01*
X54470476Y72286667D01*
X54660952Y72334286D01*
X54803809Y72334286D01*
X54994285Y72286667D01*
X55089523Y72239048D01*
X55184761Y72143810D01*
X55232380Y72000953D01*
X55232380Y71762858D01*
X54946666Y72715239D02*
X54946666Y73191429D01*
X55232380Y72620000D02*
X54232380Y72953334D01*
X55232380Y73286667D01*
X55232380Y74143810D02*
X55232380Y73572381D01*
X55232380Y73858096D02*
X54232380Y73858096D01*
X54375238Y73762858D01*
X54470476Y73667620D01*
X54518095Y73572381D01*
X7294761Y6996667D02*
X7342380Y7139524D01*
X7342380Y7377620D01*
X7294761Y7472858D01*
X7247142Y7520477D01*
X7151904Y7568096D01*
X7056666Y7568096D01*
X6961428Y7520477D01*
X6913809Y7472858D01*
X6866190Y7377620D01*
X6818571Y7187143D01*
X6770952Y7091905D01*
X6723333Y7044286D01*
X6628095Y6996667D01*
X6532857Y6996667D01*
X6437619Y7044286D01*
X6390000Y7091905D01*
X6342380Y7187143D01*
X6342380Y7425239D01*
X6390000Y7568096D01*
X6342380Y7901429D02*
X7342380Y8139524D01*
X6628095Y8330000D01*
X7342380Y8520477D01*
X6342380Y8758572D01*
X7342380Y9663334D02*
X7342380Y9091905D01*
X7342380Y9377620D02*
X6342380Y9377620D01*
X6485238Y9282381D01*
X6580476Y9187143D01*
X6628095Y9091905D01*
X15176666Y23725239D02*
X15319523Y23677620D01*
X15557619Y23677620D01*
X15652857Y23725239D01*
X15700476Y23772858D01*
X15748095Y23868096D01*
X15748095Y23963334D01*
X15700476Y24058572D01*
X15652857Y24106191D01*
X15557619Y24153810D01*
X15367142Y24201429D01*
X15271904Y24249048D01*
X15224285Y24296667D01*
X15176666Y24391905D01*
X15176666Y24487143D01*
X15224285Y24582381D01*
X15271904Y24630000D01*
X15367142Y24677620D01*
X15605238Y24677620D01*
X15748095Y24630000D01*
X16081428Y24677620D02*
X16319523Y23677620D01*
X16510000Y24391905D01*
X16700476Y23677620D01*
X16938571Y24677620D01*
X17271904Y24582381D02*
X17319523Y24630000D01*
X17414761Y24677620D01*
X17652857Y24677620D01*
X17748095Y24630000D01*
X17795714Y24582381D01*
X17843333Y24487143D01*
X17843333Y24391905D01*
X17795714Y24249048D01*
X17224285Y23677620D01*
X17843333Y23677620D01*
X20256666Y2135239D02*
X20399523Y2087620D01*
X20637619Y2087620D01*
X20732857Y2135239D01*
X20780476Y2182858D01*
X20828095Y2278096D01*
X20828095Y2373334D01*
X20780476Y2468572D01*
X20732857Y2516191D01*
X20637619Y2563810D01*
X20447142Y2611429D01*
X20351904Y2659048D01*
X20304285Y2706667D01*
X20256666Y2801905D01*
X20256666Y2897143D01*
X20304285Y2992381D01*
X20351904Y3040000D01*
X20447142Y3087620D01*
X20685238Y3087620D01*
X20828095Y3040000D01*
X21161428Y3087620D02*
X21399523Y2087620D01*
X21590000Y2801905D01*
X21780476Y2087620D01*
X22018571Y3087620D01*
X22304285Y3087620D02*
X22923333Y3087620D01*
X22590000Y2706667D01*
X22732857Y2706667D01*
X22828095Y2659048D01*
X22875714Y2611429D01*
X22923333Y2516191D01*
X22923333Y2278096D01*
X22875714Y2182858D01*
X22828095Y2135239D01*
X22732857Y2087620D01*
X22447142Y2087620D01*
X22351904Y2135239D01*
X22304285Y2182858D01*
X29146666Y23725239D02*
X29289523Y23677620D01*
X29527619Y23677620D01*
X29622857Y23725239D01*
X29670476Y23772858D01*
X29718095Y23868096D01*
X29718095Y23963334D01*
X29670476Y24058572D01*
X29622857Y24106191D01*
X29527619Y24153810D01*
X29337142Y24201429D01*
X29241904Y24249048D01*
X29194285Y24296667D01*
X29146666Y24391905D01*
X29146666Y24487143D01*
X29194285Y24582381D01*
X29241904Y24630000D01*
X29337142Y24677620D01*
X29575238Y24677620D01*
X29718095Y24630000D01*
X30051428Y24677620D02*
X30289523Y23677620D01*
X30480000Y24391905D01*
X30670476Y23677620D01*
X30908571Y24677620D01*
X31718095Y24344286D02*
X31718095Y23677620D01*
X31480000Y24725239D02*
X31241904Y24010953D01*
X31860952Y24010953D01*
X34226666Y2135239D02*
X34369523Y2087620D01*
X34607619Y2087620D01*
X34702857Y2135239D01*
X34750476Y2182858D01*
X34798095Y2278096D01*
X34798095Y2373334D01*
X34750476Y2468572D01*
X34702857Y2516191D01*
X34607619Y2563810D01*
X34417142Y2611429D01*
X34321904Y2659048D01*
X34274285Y2706667D01*
X34226666Y2801905D01*
X34226666Y2897143D01*
X34274285Y2992381D01*
X34321904Y3040000D01*
X34417142Y3087620D01*
X34655238Y3087620D01*
X34798095Y3040000D01*
X35131428Y3087620D02*
X35369523Y2087620D01*
X35560000Y2801905D01*
X35750476Y2087620D01*
X35988571Y3087620D01*
X36845714Y3087620D02*
X36369523Y3087620D01*
X36321904Y2611429D01*
X36369523Y2659048D01*
X36464761Y2706667D01*
X36702857Y2706667D01*
X36798095Y2659048D01*
X36845714Y2611429D01*
X36893333Y2516191D01*
X36893333Y2278096D01*
X36845714Y2182858D01*
X36798095Y2135239D01*
X36702857Y2087620D01*
X36464761Y2087620D01*
X36369523Y2135239D01*
X36321904Y2182858D01*
X47506666Y2135239D02*
X47649523Y2087620D01*
X47887619Y2087620D01*
X47982857Y2135239D01*
X48030476Y2182858D01*
X48078095Y2278096D01*
X48078095Y2373334D01*
X48030476Y2468572D01*
X47982857Y2516191D01*
X47887619Y2563810D01*
X47697142Y2611429D01*
X47601904Y2659048D01*
X47554285Y2706667D01*
X47506666Y2801905D01*
X47506666Y2897143D01*
X47554285Y2992381D01*
X47601904Y3040000D01*
X47697142Y3087620D01*
X47935238Y3087620D01*
X48078095Y3040000D01*
X48411428Y3087620D02*
X48649523Y2087620D01*
X48840000Y2801905D01*
X49030476Y2087620D01*
X49268571Y3087620D01*
X50078095Y3087620D02*
X49887619Y3087620D01*
X49792380Y3040000D01*
X49744761Y2992381D01*
X49649523Y2849524D01*
X49601904Y2659048D01*
X49601904Y2278096D01*
X49649523Y2182858D01*
X49697142Y2135239D01*
X49792380Y2087620D01*
X49982857Y2087620D01*
X50078095Y2135239D01*
X50125714Y2182858D01*
X50173333Y2278096D01*
X50173333Y2516191D01*
X50125714Y2611429D01*
X50078095Y2659048D01*
X49982857Y2706667D01*
X49792380Y2706667D01*
X49697142Y2659048D01*
X49649523Y2611429D01*
X49601904Y2516191D01*
X54546666Y23725239D02*
X54689523Y23677620D01*
X54927619Y23677620D01*
X55022857Y23725239D01*
X55070476Y23772858D01*
X55118095Y23868096D01*
X55118095Y23963334D01*
X55070476Y24058572D01*
X55022857Y24106191D01*
X54927619Y24153810D01*
X54737142Y24201429D01*
X54641904Y24249048D01*
X54594285Y24296667D01*
X54546666Y24391905D01*
X54546666Y24487143D01*
X54594285Y24582381D01*
X54641904Y24630000D01*
X54737142Y24677620D01*
X54975238Y24677620D01*
X55118095Y24630000D01*
X55451428Y24677620D02*
X55689523Y23677620D01*
X55880000Y24391905D01*
X56070476Y23677620D01*
X56308571Y24677620D01*
X56594285Y24677620D02*
X57260952Y24677620D01*
X56832380Y23677620D01*
X57086666Y2135239D02*
X57229523Y2087620D01*
X57467619Y2087620D01*
X57562857Y2135239D01*
X57610476Y2182858D01*
X57658095Y2278096D01*
X57658095Y2373334D01*
X57610476Y2468572D01*
X57562857Y2516191D01*
X57467619Y2563810D01*
X57277142Y2611429D01*
X57181904Y2659048D01*
X57134285Y2706667D01*
X57086666Y2801905D01*
X57086666Y2897143D01*
X57134285Y2992381D01*
X57181904Y3040000D01*
X57277142Y3087620D01*
X57515238Y3087620D01*
X57658095Y3040000D01*
X57991428Y3087620D02*
X58229523Y2087620D01*
X58420000Y2801905D01*
X58610476Y2087620D01*
X58848571Y3087620D01*
X59372380Y2659048D02*
X59277142Y2706667D01*
X59229523Y2754286D01*
X59181904Y2849524D01*
X59181904Y2897143D01*
X59229523Y2992381D01*
X59277142Y3040000D01*
X59372380Y3087620D01*
X59562857Y3087620D01*
X59658095Y3040000D01*
X59705714Y2992381D01*
X59753333Y2897143D01*
X59753333Y2849524D01*
X59705714Y2754286D01*
X59658095Y2706667D01*
X59562857Y2659048D01*
X59372380Y2659048D01*
X59277142Y2611429D01*
X59229523Y2563810D01*
X59181904Y2468572D01*
X59181904Y2278096D01*
X59229523Y2182858D01*
X59277142Y2135239D01*
X59372380Y2087620D01*
X59562857Y2087620D01*
X59658095Y2135239D01*
X59705714Y2182858D01*
X59753333Y2278096D01*
X59753333Y2468572D01*
X59705714Y2563810D01*
X59658095Y2611429D01*
X59562857Y2659048D01*
X66666666Y23725239D02*
X66809523Y23677620D01*
X67047619Y23677620D01*
X67142857Y23725239D01*
X67190476Y23772858D01*
X67238095Y23868096D01*
X67238095Y23963334D01*
X67190476Y24058572D01*
X67142857Y24106191D01*
X67047619Y24153810D01*
X66857142Y24201429D01*
X66761904Y24249048D01*
X66714285Y24296667D01*
X66666666Y24391905D01*
X66666666Y24487143D01*
X66714285Y24582381D01*
X66761904Y24630000D01*
X66857142Y24677620D01*
X67095238Y24677620D01*
X67238095Y24630000D01*
X67571428Y24677620D02*
X67809523Y23677620D01*
X68000000Y24391905D01*
X68190476Y23677620D01*
X68428571Y24677620D01*
X68857142Y23677620D02*
X69047619Y23677620D01*
X69142857Y23725239D01*
X69190476Y23772858D01*
X69285714Y23915715D01*
X69333333Y24106191D01*
X69333333Y24487143D01*
X69285714Y24582381D01*
X69238095Y24630000D01*
X69142857Y24677620D01*
X68952380Y24677620D01*
X68857142Y24630000D01*
X68809523Y24582381D01*
X68761904Y24487143D01*
X68761904Y24249048D01*
X68809523Y24153810D01*
X68857142Y24106191D01*
X68952380Y24058572D01*
X69142857Y24058572D01*
X69238095Y24106191D01*
X69285714Y24153810D01*
X69333333Y24249048D01*
X69310476Y2135239D02*
X69453333Y2087620D01*
X69691428Y2087620D01*
X69786666Y2135239D01*
X69834285Y2182858D01*
X69881904Y2278096D01*
X69881904Y2373334D01*
X69834285Y2468572D01*
X69786666Y2516191D01*
X69691428Y2563810D01*
X69500952Y2611429D01*
X69405714Y2659048D01*
X69358095Y2706667D01*
X69310476Y2801905D01*
X69310476Y2897143D01*
X69358095Y2992381D01*
X69405714Y3040000D01*
X69500952Y3087620D01*
X69739047Y3087620D01*
X69881904Y3040000D01*
X70215238Y3087620D02*
X70453333Y2087620D01*
X70643809Y2801905D01*
X70834285Y2087620D01*
X71072380Y3087620D01*
X71977142Y2087620D02*
X71405714Y2087620D01*
X71691428Y2087620D02*
X71691428Y3087620D01*
X71596190Y2944762D01*
X71500952Y2849524D01*
X71405714Y2801905D01*
X72596190Y3087620D02*
X72691428Y3087620D01*
X72786666Y3040000D01*
X72834285Y2992381D01*
X72881904Y2897143D01*
X72929523Y2706667D01*
X72929523Y2468572D01*
X72881904Y2278096D01*
X72834285Y2182858D01*
X72786666Y2135239D01*
X72691428Y2087620D01*
X72596190Y2087620D01*
X72500952Y2135239D01*
X72453333Y2182858D01*
X72405714Y2278096D01*
X72358095Y2468572D01*
X72358095Y2706667D01*
X72405714Y2897143D01*
X72453333Y2992381D01*
X72500952Y3040000D01*
X72596190Y3087620D01*
X79470476Y23725239D02*
X79613333Y23677620D01*
X79851428Y23677620D01*
X79946666Y23725239D01*
X79994285Y23772858D01*
X80041904Y23868096D01*
X80041904Y23963334D01*
X79994285Y24058572D01*
X79946666Y24106191D01*
X79851428Y24153810D01*
X79660952Y24201429D01*
X79565714Y24249048D01*
X79518095Y24296667D01*
X79470476Y24391905D01*
X79470476Y24487143D01*
X79518095Y24582381D01*
X79565714Y24630000D01*
X79660952Y24677620D01*
X79899047Y24677620D01*
X80041904Y24630000D01*
X80375238Y24677620D02*
X80613333Y23677620D01*
X80803809Y24391905D01*
X80994285Y23677620D01*
X81232380Y24677620D01*
X82137142Y23677620D02*
X81565714Y23677620D01*
X81851428Y23677620D02*
X81851428Y24677620D01*
X81756190Y24534762D01*
X81660952Y24439524D01*
X81565714Y24391905D01*
X83089523Y23677620D02*
X82518095Y23677620D01*
X82803809Y23677620D02*
X82803809Y24677620D01*
X82708571Y24534762D01*
X82613333Y24439524D01*
X82518095Y24391905D01*
X82010476Y2135239D02*
X82153333Y2087620D01*
X82391428Y2087620D01*
X82486666Y2135239D01*
X82534285Y2182858D01*
X82581904Y2278096D01*
X82581904Y2373334D01*
X82534285Y2468572D01*
X82486666Y2516191D01*
X82391428Y2563810D01*
X82200952Y2611429D01*
X82105714Y2659048D01*
X82058095Y2706667D01*
X82010476Y2801905D01*
X82010476Y2897143D01*
X82058095Y2992381D01*
X82105714Y3040000D01*
X82200952Y3087620D01*
X82439047Y3087620D01*
X82581904Y3040000D01*
X82915238Y3087620D02*
X83153333Y2087620D01*
X83343809Y2801905D01*
X83534285Y2087620D01*
X83772380Y3087620D01*
X84677142Y2087620D02*
X84105714Y2087620D01*
X84391428Y2087620D02*
X84391428Y3087620D01*
X84296190Y2944762D01*
X84200952Y2849524D01*
X84105714Y2801905D01*
X85058095Y2992381D02*
X85105714Y3040000D01*
X85200952Y3087620D01*
X85439047Y3087620D01*
X85534285Y3040000D01*
X85581904Y2992381D01*
X85629523Y2897143D01*
X85629523Y2801905D01*
X85581904Y2659048D01*
X85010476Y2087620D01*
X85629523Y2087620D01*
M02*
